
<svg width="1140px" height="218px" viewBox="0 0 1140 218" version="1.1" xmlns="http://www.w3.org/2000/svg" xmlns:xlink="http://www.w3.org/1999/xlink">
    <!-- Generator: Sketch 50 (54983) - http://www.bohemiancoding.com/sketch -->
    <desc>Created with Sketch.</desc>
    <defs>
        <path d="M105.055,126.167 C106.021,123.373 106.602,121.727 107.159,120.074 C118.803,85.534 130.542,51.026 142.046,16.44 C147.681,-0.504 155.317,-0.059 172.189,0.47 C178.544,0.669 183.07,7.409 184.137,13.788 C192.538,64.042 200.95,114.294 209.368,164.546 C211.054,174.613 205.862,182.718 196.638,184.354 C186.487,186.154 177.837,180.344 176.083,170.176 C170.677,138.835 165.414,107.469 160.086,76.115 C159.785,74.339 159.407,72.576 158.809,69.484 C156.756,75.395 155.096,80.057 153.516,84.746 C143.952,113.138 134.438,141.547 124.841,169.928 C120.075,184.021 113.064,185.345 98.434,183.879 C91.225,183.157 87.357,176.317 85.2,169.936 C74.541,138.4 63.907,106.856 53.26,75.316 C52.785,73.91 52.278,72.514 51.25,69.589 C50.153,75.435 49.257,79.847 48.505,84.283 C43.692,112.685 38.904,141.09 34.122,169.496 C32.358,179.974 23.946,186.085 13.569,184.387 C4.166,182.848 -1.035,174.558 0.7,164.222 C8.941,115.122 17.156,66.017 25.313,16.903 C27.298,4.949 32.351,0.466 44.395,0.448 C59.403,0.427 63.313,2.958 68.183,17.237 C79.895,51.579 91.389,85.995 102.977,120.38 C103.489,121.898 104.058,123.398 105.055,126.167" id="path-1"></path>
        <linearGradient x1="49.9999143%" y1="-0.000277807227%" x2="49.9999143%" y2="100.000048%" id="linearGradient-3">
            <stop stop-color="#F9D220" offset="0%"></stop>
            <stop stop-color="#DE492A" offset="100%"></stop>
        </linearGradient>
        <path d="M32.23,94.398 C51.21,94.398 69.69,94.674 88.15,94.22 C93.32,94.093 98.72,92.478 103.51,90.394 C115.67,85.114 121.8,74.053 120.9,60.572 C120.04,47.729 112.59,38.356 99.5,34.815 C94.11,33.355 88.35,32.79 82.73,32.689 C67.25,32.411 47.68,32.585 32.19,32.604 C30.91,32.606 33.66,32.436 32.19,32.553 C32.19,53.108 32.23,73.721 32.23,94.398 Z M117.34,120.57 C126.61,133.697 135.61,146.272 144.44,158.966 C151.55,169.197 146.14,182.601 134.21,184.341 C126.79,185.423 121.38,181.965 117.23,176.079 C106.47,160.834 95.62,145.652 84.98,130.328 C83.07,127.573 81.06,126.46 77.66,126.503 C60.27,126.614 47.71,126.586 32.26,126.586 C32.17,128.424 32.03,130.018 32.02,131.613 C32,143.61 32.07,155.607 31.99,167.603 C31.93,177.486 25.32,184.474 16.14,184.58 C7,184.686 0.26,177.734 0.25,167.749 C0.18,117.596 0.18,67.443 0.25,17.291 C0.26,6.731 6.62,0.531 17.12,0.512 C40.78,0.469 17.12,0.561 88.1,0.561 C106.21,0.561 122.92,5.299 137.21,17.212 C164.13,39.648 166.05,96.117 124.71,116.889 C122.5,118.003 120.27,119.104 117.34,120.57 Z" id="path-4"></path>
        <linearGradient x1="50.0032535%" y1="0.000242602086%" x2="50.0032535%" y2="100.000437%" id="linearGradient-6">
            <stop stop-color="#F9D220" offset="0%"></stop>
            <stop stop-color="#DE492A" offset="100%"></stop>
        </linearGradient>
        <path d="M57.842,33.219 C55.569,33.219 50.232,33.219 52.011,33.219 C57.842,33.219 57.842,33.185 17.039,33.185 C7.435,33.185 0.646,26.067 0.726,16.673 C0.805,7.374 7.378,0.548 16.796,0.527 C92.981,0.527 93.067,0.446 131.203,0.525 C140.217,0.544 147.379,7.926 147.37,16.72 C147.36,25.971 140.875,33.114 131.454,33.114 C89.937,33.114 102.032,33.219 95.984,33.219 C89.937,33.219 92.365,33.219 89.937,33.219 C89.937,35.593 89.937,37.535 89.937,39.477 C89.936,82.276 89.962,125.074 89.913,167.873 C89.903,177.444 83.362,184.333 74.369,184.575 C65.722,184.808 58.843,178.322 57.949,169.059 C57.837,167.902 57.854,166.731 57.847,165.566 C57.833,163.068 57.842,160.57 57.842,158.072 C57.842,118.604 57.842,79.137 57.842,39.669 C57.842,37.714 57.842,35.758 57.842,33.219" id="path-7"></path>
        <linearGradient x1="49.9995537%" y1="0.000325920719%" x2="49.9995537%" y2="100.000499%" id="linearGradient-9">
            <stop stop-color="#F9D220" offset="0%"></stop>
            <stop stop-color="#DE492A" offset="100%"></stop>
        </linearGradient>
        <path d="M1.81,0.142 C1.37,0.489 0.94,0.845 0.49,1.182 C0.93,0.84 1.38,0.496 1.81,0.142" id="path-10"></path>
        <linearGradient x1="0%" y1="50%" x2="100.295455%" y2="50%" id="linearGradient-12">
            <stop stop-color="#F5BC74" offset="0%"></stop>
            <stop stop-color="#F9DAB0" offset="100%"></stop>
        </linearGradient>
        <path d="M0.45,6.049 C3.54,4.385 6.5,2.468 9.31,0.32 C6.5,2.423 3.53,4.33 0.45,6.049" id="path-13"></path>
        <linearGradient x1="0%" y1="49.9912725%" x2="100.06772%" y2="49.9912725%" id="linearGradient-15">
            <stop stop-color="#F5BC74" offset="0%"></stop>
            <stop stop-color="#F9DAB0" offset="100%"></stop>
        </linearGradient>
        <path d="M83.13,17.173 C73.88,11.525 64.64,5.868 55.37,0.268 C54.9,-0.013 53.98,-0.038 53.53,0.238 C43.978,6.029 34.468,11.889 24.94,17.72 C16.898,22.643 8.848,27.553 0.8,32.465 C12.349,55.74 34.572,71.504 60.1,71.504 C70.62,71.504 80.57,68.822 89.45,64.049 C92.53,62.33 95.5,60.423 98.31,58.32 C98.37,58.275 98.43,58.228 98.49,58.182 C98.94,57.845 99.37,57.489 99.81,57.142 C106.39,51.813 112.08,45.198 116.59,37.624 C115.82,37.158 115.07,36.691 114.3,36.226 C103.92,29.869 93.52,23.523 83.13,17.173" id="path-16"></path>
        <linearGradient x1="0%" y1="50.0002683%" x2="99.9965455%" y2="50.0002683%" id="linearGradient-18">
            <stop stop-color="#F5BC74" offset="0%"></stop>
            <stop stop-color="#F9DAB0" offset="100%"></stop>
        </linearGradient>
        <path d="M0.75,0.199 C0.74,0.304 0.74,0.411 0.74,0.529 C0.75,9.465 0.76,18.4 0.76,27.336 C42.15,31.351 74.51,66.234 74.51,108.683 C74.51,121.764 71.42,134.119 65.96,145.082 C65.29,144.674 64.62,144.267 63.96,143.859 C63.91,143.96 63.86,144.064 63.81,144.166 C65.59,145.257 67.38,146.348 69.16,147.437 C76.66,152.012 84.16,156.568 91.65,161.158 C100.31,145.566 105.24,127.625 105.23,108.535 C105.21,50.025 58.76,2.316 0.75,0.199" id="path-19"></path>
        <linearGradient x1="49.9952076%" y1="0%" x2="49.9952076%" y2="100%" id="linearGradient-21">
            <stop stop-color="#F9D220" offset="0%"></stop>
            <stop stop-color="#DE492A" offset="100%"></stop>
        </linearGradient>
        <path d="M74.51,81.683 C74.51,39.234 42.15,4.351 0.76,0.336 C0.76,1.327 0.76,2.319 0.76,3.31 C40.79,7.191 72.08,40.922 72.08,81.969 C72.08,94.497 69.15,106.333 63.96,116.859 C64.62,117.267 65.29,117.674 65.96,118.082 C71.42,107.119 74.51,94.764 74.51,81.683" id="path-22"></path>
        <linearGradient x1="49.9932203%" y1="-8.49285751e-05%" x2="49.9932203%" y2="99.9999151%" id="linearGradient-24">
            <stop stop-color="#F9D220" offset="0%"></stop>
            <stop stop-color="#DE492A" offset="100%"></stop>
        </linearGradient>
        <path d="M27.21,17.489 C20.68,13.513 14.16,9.509 7.64,5.521 C5.75,4.366 3.88,3.185 1.95,2.097 C1.14,1.637 0.77,1.037 0.759797494,0.157 C0.76,0.286 0.76,0.416 0.76,0.546 C0.75,1.425 1.11,2.015 1.92,2.468 C3.78,3.521 5.59,4.663 7.42,5.78 C13.73,9.636 20.02,13.507 26.34,17.352 C33.22,21.546 40.13,25.706 47.01,29.9 C52.62,33.314 58.21,36.742 63.81,40.166 C63.86,40.064 63.91,39.96 63.96,39.859 C58.84,36.725 53.72,33.589 48.59,30.466 C41.47,26.128 34.33,21.826 27.21,17.489" id="path-25"></path>
        <linearGradient x1="50.0003184%" y1="0%" x2="50.0003184%" y2="100.00025%" id="linearGradient-27">
            <stop stop-color="#F9D220" offset="0%"></stop>
            <stop stop-color="#DE492A" offset="100%"></stop>
        </linearGradient>
        <linearGradient x1="0%" y1="0%" x2="0%" y2="100.004498%" id="linearGradient-28">
            <stop stop-color="#F9D220" offset="0%"></stop>
            <stop stop-color="#DE492A" offset="100%"></stop>
        </linearGradient>
        <path d="M0.76,0.31 C0.76,6.894 0.76,13.478 0.76,20.062 C0.76,20.803 0.76,21.544 0.76,22.285 L0.77,22.285 C0.77,38.948 0.77,55.611 0.77,72.273 C0.77,72.901 0.77,73.529 0.76,74.157 C0.77,75.037 1.14,75.637 1.95,76.097 C3.88,77.185 5.75,78.366 7.64,79.521 C14.16,83.509 20.68,87.513 27.21,91.489 C34.33,95.826 41.47,100.128 48.59,104.466 C53.72,107.589 58.84,110.725 63.96,113.859 C69.15,103.333 72.08,91.497 72.08,78.969 C72.08,37.922 40.79,4.191 0.76,0.31" id="path-29"></path>
        <linearGradient x1="50%" y1="0%" x2="50%" y2="100%" id="linearGradient-31">
            <stop stop-color="#F9D220" offset="0%"></stop>
            <stop stop-color="#DE492A" offset="100%"></stop>
        </linearGradient>
        <path d="M0.81,1.166 C0.97,1.262 1.12,1.358 1.28,1.454 C1.33,1.351 1.37,1.246 1.42,1.143 C1.27,1.048 1.11,0.953 0.96,0.859 C0.91,0.96 0.86,1.064 0.81,1.166" id="path-32"></path>
        <linearGradient x1="0.01%" y1="29.7%" x2="61.33%" y2="29.7%" id="linearGradient-34">
            <stop stop-color="#F5BC74" offset="0%"></stop>
            <stop stop-color="#F9DAB0" offset="100%"></stop>
        </linearGradient>
        <path d="M0.45,0.129 C31.63,10.715 54.08,40.211 54.08,74.969 C54.08,87.497 51.15,99.333 45.96,109.859 C46.11,109.953 46.27,110.048 46.42,110.143 C51.39,99.51 54.21,87.356 54.21,74.442 C54.21,37.416 31.04,6.629 0.45,0.129" id="path-35"></path>
        <linearGradient x1="0%" y1="50%" x2="99.9955357%" y2="50%" id="linearGradient-37">
            <stop stop-color="#F5BC74" offset="0%"></stop>
            <stop stop-color="#F9DAB0" offset="100%"></stop>
        </linearGradient>
        <linearGradient x1="0%" y1="49.9775079%" x2="0.47%" y2="49.9775079%" id="linearGradient-38">
            <stop stop-color="#F5BC74" offset="0%"></stop>
            <stop stop-color="#F9DAB0" offset="100%"></stop>
        </linearGradient>
        <path d="M27.21,17.489 C20.68,13.513 14.16,9.509 7.64,5.521 C5.75,4.366 3.88,3.185 1.95,2.097 C1.14,1.637 0.77,1.037 0.759797494,0.157 C0.76,0.286 0.76,0.416 0.76,0.546 C0.75,1.425 1.11,2.015 1.92,2.468 C3.78,3.521 5.59,4.663 7.42,5.78 C13.73,9.636 20.02,13.507 26.34,17.352 C33.22,21.546 40.13,25.706 47.01,29.9 C52.62,33.314 58.21,36.742 63.81,40.166 C63.86,40.064 63.91,39.96 63.96,39.859 C58.84,36.725 53.72,33.589 48.59,30.466 C41.47,26.128 34.33,21.826 27.21,17.489" id="path-39"></path>
        <linearGradient x1="0.000320419404%" y1="49.9987503%" x2="99.990981%" y2="49.9987503%" id="linearGradient-41">
            <stop stop-color="#F5BC74" offset="0%"></stop>
            <stop stop-color="#F9DAB0" offset="100%"></stop>
        </linearGradient>
        <path d="M18.45,2.129 C14.55,1.299 10.53,0.844 6.42,0.844 C4.51,0.844 2.63,0.959 0.76,1.142 C0.76,6.782 0.76,12.422 0.76,18.062 C0.76,18.803 0.76,19.544 0.76,20.285 L0.77,20.285 C0.77,36.948 0.77,53.611 0.77,70.273 C0.77,70.901 0.77,71.529 0.76,72.157 C0.77,73.037 1.14,73.637 1.95,74.097 C3.88,75.185 5.75,76.366 7.64,77.521 C14.16,81.509 20.68,85.513 27.21,89.489 C34.33,93.826 41.47,98.128 48.59,102.466 C53.72,105.589 58.84,108.725 63.96,111.859 C69.15,101.333 72.08,89.497 72.08,76.969 C72.08,42.211 49.63,12.715 18.45,2.129" id="path-42"></path>
        <linearGradient x1="0%" y1="50.0004504%" x2="100.002384%" y2="50.0004504%" id="linearGradient-44">
            <stop stop-color="#F5BC74" offset="0%"></stop>
            <stop stop-color="#F9DAB0" offset="100%"></stop>
        </linearGradient>
        <path d="M0.201,75.505 C0.201,86.026 2.131,96.042 5.611,105.144 C7.341,104.083 9.071,103.022 10.801,101.962 C15.923,98.824 21.044,95.683 26.17,92.552 C31.367,89.376 36.574,86.215 41.771,83.04 C47.04,79.821 52.292,76.575 57.576,73.38 C58.58,72.774 59.05,72.062 59.05,70.846 C59.03,47.429 59.03,24.013 59.03,0.597 C25.835,5.471 0.201,37.131 0.201,75.505" id="path-45"></path>
        <linearGradient x1="0%" y1="50.0004783%" x2="100%" y2="50.0004783%" id="linearGradient-47">
            <stop stop-color="#F5BC74" offset="0%"></stop>
            <stop stop-color="#F9DAB0" offset="100%"></stop>
        </linearGradient>
    </defs>
    <g id="Page-2" stroke="none" stroke-width="1" fill="none" fill-rule="evenodd">
        <g id="Group-146" transform="translate(0.000000, 18.000000)">
            <mask id="mask-2" fill="white">
                <use xlink:href="#path-1"></use>
            </mask>
            <g id="Clip-145"></g>
            <path d="M105.055,126.167 C106.021,123.373 106.602,121.727 107.159,120.074 C118.803,85.534 130.542,51.026 142.046,16.44 C147.681,-0.504 155.317,-0.059 172.189,0.47 C178.544,0.669 183.07,7.409 184.137,13.788 C192.538,64.042 200.95,114.294 209.368,164.546 C211.054,174.613 205.862,182.718 196.638,184.354 C186.487,186.154 177.837,180.344 176.083,170.176 C170.677,138.835 165.414,107.469 160.086,76.115 C159.785,74.339 159.407,72.576 158.809,69.484 C156.756,75.395 155.096,80.057 153.516,84.746 C143.952,113.138 134.438,141.547 124.841,169.928 C120.075,184.021 113.064,185.345 98.434,183.879 C91.225,183.157 87.357,176.317 85.2,169.936 C74.541,138.4 63.907,106.856 53.26,75.316 C52.785,73.91 52.278,72.514 51.25,69.589 C50.153,75.435 49.257,79.847 48.505,84.283 C43.692,112.685 38.904,141.09 34.122,169.496 C32.358,179.974 23.946,186.085 13.569,184.387 C4.166,182.848 -1.035,174.558 0.7,164.222 C8.941,115.122 17.156,66.017 25.313,16.903 C27.298,4.949 32.351,0.466 44.395,0.448 C59.403,0.427 63.313,2.958 68.183,17.237 C79.895,51.579 91.389,85.995 102.977,120.38 C103.489,121.898 104.058,123.398 105.055,126.167" id="Fill-144" fill="url(#linearGradient-3)" mask="url(#mask-2)"></path>
        </g>
        <g id="Group-149" transform="translate(983.000000, 18.000000)">
            <mask id="mask-5" fill="white">
                <use xlink:href="#path-4"></use>
            </mask>
            <g id="Clip-148"></g>
            <path d="M32.23,94.398 C51.21,94.398 69.69,94.674 88.15,94.22 C93.32,94.093 98.72,92.478 103.51,90.394 C115.67,85.114 121.8,74.053 120.9,60.572 C120.04,47.729 112.59,38.356 99.5,34.815 C94.11,33.355 88.35,32.79 82.73,32.689 C67.25,32.411 47.68,32.585 32.19,32.604 C30.91,32.606 33.66,32.436 32.19,32.553 C32.19,53.108 32.23,73.721 32.23,94.398 Z M117.34,120.57 C126.61,133.697 135.61,146.272 144.44,158.966 C151.55,169.197 146.14,182.601 134.21,184.341 C126.79,185.423 121.38,181.965 117.23,176.079 C106.47,160.834 95.62,145.652 84.98,130.328 C83.07,127.573 81.06,126.46 77.66,126.503 C60.27,126.614 47.71,126.586 32.26,126.586 C32.17,128.424 32.03,130.018 32.02,131.613 C32,143.61 32.07,155.607 31.99,167.603 C31.93,177.486 25.32,184.474 16.14,184.58 C7,184.686 0.26,177.734 0.25,167.749 C0.18,117.596 0.18,67.443 0.25,17.291 C0.26,6.731 6.62,0.531 17.12,0.512 C40.78,0.469 17.12,0.561 88.1,0.561 C106.21,0.561 122.92,5.299 137.21,17.212 C164.13,39.648 166.05,96.117 124.71,116.889 C122.5,118.003 120.27,119.104 117.34,120.57 Z" id="Fill-147" fill="url(#linearGradient-6)" mask="url(#mask-5)"></path>
        </g>
        <g id="Group-152" transform="translate(414.000000, 18.000000)">
            <mask id="mask-8" fill="white">
                <use xlink:href="#path-7"></use>
            </mask>
            <g id="Clip-151"></g>
            <path d="M57.842,33.219 C55.569,33.219 50.232,33.219 52.011,33.219 C57.842,33.219 57.842,33.185 17.039,33.185 C7.435,33.185 0.646,26.067 0.726,16.673 C0.805,7.374 7.378,0.548 16.796,0.527 C92.981,0.527 93.067,0.446 131.203,0.525 C140.217,0.544 147.379,7.926 147.37,16.72 C147.36,25.971 140.875,33.114 131.454,33.114 C89.937,33.114 102.032,33.219 95.984,33.219 C89.937,33.219 92.365,33.219 89.937,33.219 C89.937,35.593 89.937,37.535 89.937,39.477 C89.936,82.276 89.962,125.074 89.913,167.873 C89.903,177.444 83.362,184.333 74.369,184.575 C65.722,184.808 58.843,178.322 57.949,169.059 C57.837,167.902 57.854,166.731 57.847,165.566 C57.833,163.068 57.842,160.57 57.842,158.072 C57.842,118.604 57.842,79.137 57.842,39.669 C57.842,37.714 57.842,35.758 57.842,33.219" id="Fill-150" fill="url(#linearGradient-9)" mask="url(#mask-8)"></path>
        </g>
        <path d="M313.223048,202.995868 C292.252644,202.993858 292.252644,202.993858 250.311837,202.966725 C243.040164,202.939592 237.352767,199.045511 235.022833,192.916478 C232.723885,186.867838 234.410114,179.764029 238.979023,175.504155 C241.818723,172.856179 247.065322,171.18901 251.207427,171.11967 C273.803087,170.92773 296.470714,171.018173 319.103357,171.043296 C337.741828,171.063394 356.380298,171.001089 375.018769,171.065404 C384.914241,171.099572 391.996,177.816485 391.999998,186.943208 C392.003997,196.188511 384.655359,202.993858 374.635944,202.996873 C354.164312,203.002903 333.69368,202.998883 313.223048,202.995868" id="Fill-153" fill="#DF4F2A"></path>
        <path d="M313.223048,50.9958682 C292.252644,50.9938584 292.252644,50.9938584 250.311837,50.9667257 C243.040164,50.9395931 237.352767,47.0455588 235.022833,40.9166001 C232.723885,34.8680344 234.410114,27.764311 238.979023,23.5044887 C241.818723,20.8565454 247.065322,19.1883913 251.207427,19.1200573 C273.803087,18.9271142 296.470714,19.0185612 319.103357,19.043684 C337.741828,19.0637822 356.381298,19.0014777 375.019769,19.0657921 C384.914241,19.0999591 391.996,25.8167914 391.999998,34.9434028 C392.003997,44.1885938 384.655359,50.9928535 374.635944,50.9968731 C354.165312,51.0029026 333.69368,50.9988829 313.223048,50.9958682" id="Fill-154" fill="#F7D121"></path>
        <path d="M301.200042,124.952248 C284.732236,124.952248 268.264429,124.974208 251.796622,124.944263 C241.061178,124.924299 234.035087,118.609837 234.000122,109.048307 C233.966155,99.4977567 241.050189,93.0265803 251.710706,93.0185949 C284.979992,92.9956368 318.249278,92.9836587 351.518563,93.0455456 C360.148078,93.0615165 366.457873,98.332885 367.761591,106.254411 C369.060314,114.145993 364.973333,121.381772 357.445735,124.050895 C355.469678,124.750617 353.227882,124.945261 351.106968,124.954245 C334.471326,125.024117 317.835684,124.993173 301.200042,124.993173 C301.200042,124.979199 301.200042,124.965224 301.200042,124.952248" id="Fill-155" fill="#E9852C"></path>
        <path d="M664.222878,202.995868 C643.252429,202.993858 643.252429,202.993858 601.311531,202.966725 C594.039843,202.939592 588.353432,199.045511 586.023494,192.916478 C583.723541,186.867838 585.409773,179.764029 589.978692,175.504155 C592.818399,172.856179 598.065009,171.18901 602.207123,171.11967 C624.803831,170.92773 647.470507,171.018173 670.103199,171.043296 C688.74271,171.063394 707.381221,171.001089 726.019732,171.065404 C735.914226,171.099572 742.996,177.816485 742.999998,186.943208 C743.003997,196.188511 735.655344,202.993858 725.635907,202.996873 C705.16523,203.002903 684.693554,202.998883 664.222878,202.995868" id="Fill-156" fill="#DF4F2A"></path>
        <path d="M664.222563,50.9958682 C643.25203,50.9938584 643.25203,50.9938584 601.311964,50.9667257 C594.039248,50.9395931 588.352815,47.0445539 586.022867,40.9166001 C583.723905,34.8680344 585.410143,27.764311 589.978081,23.5044887 C592.818799,20.8565454 598.06443,19.1883913 602.20756,19.1200573 C624.803359,18.9271142 647.470126,19.0185612 670.103908,19.043684 C688.742493,19.0637822 707.381079,19.0014777 726.019664,19.0657921 C735.914197,19.0999591 742.996,25.8167914 742.999998,34.9434028 C743.003997,44.1885938 735.655314,50.9928535 725.635838,50.9968731 C705.165079,51.0029026 684.694321,50.9988829 664.222563,50.9958682" id="Fill-157" fill="#F7D121"></path>
        <path d="M652.199523,124.952248 C635.732598,124.952248 619.264674,124.974208 602.796749,124.943265 C592.061229,124.924299 585.034088,118.609837 585.000122,109.048307 C584.966155,99.4977567 592.04924,93.0265803 602.709834,93.0185949 C635.979357,92.9956368 669.24888,92.9836587 702.518404,93.0455456 C711.14798,93.0615165 717.45782,98.332885 718.761548,106.254411 C720.06028,114.145993 715.974268,121.381772 708.446617,124.050895 C706.470546,124.750617 704.228734,124.945261 702.106805,124.954245 C685.471045,125.024117 668.835284,124.993173 652.199523,124.993173 C652.199523,124.979199 652.199523,124.965224 652.199523,124.952248" id="Fill-158" fill="#E9852C"></path>
        <path d="M944.519448,168.7118 C942.787459,167.774207 941.125551,166.706503 939.433608,165.681507 C931.934997,161.12266 924.436386,156.556861 916.937775,152 C902.821564,173.490147 878.393512,187.708983 850.611609,187.708983 C824.110176,187.708983 800.669258,174.771392 786.308767,154.929978 C778.721053,159.524581 771.13334,164.116204 763.528607,168.682997 C763.30435,168.81708 763.136156,168.946198 763,169.075316 C782.404283,198.536989 815.949805,218.016874 854.055564,217.999989 C892.119274,217.984098 925.617742,198.494281 945,169.03956 C944.869851,168.930307 944.719678,168.821053 944.519448,168.7118" id="Fill-159" fill="#DE492A"></path>
        <path d="M881.965404,131.1374 C872.749362,125.486757 863.543283,119.827109 854.307314,114.224488 C853.839039,113.943357 852.922417,113.918345 852.474069,114.194474 C842.957135,119.988185 833.482047,125.850927 823.989025,131.684656 C814.710214,137.387324 805.422436,143.076985 796.13665,148.767647 C792.757103,150.838616 789.378551,152.909585 786,154.981554 C800.291342,174.967904 823.619387,188 849.99321,188 C877.641337,188 901.951762,173.6773 916,152.030174 C915.003671,151.419888 914.017305,150.808602 913.020977,150.199317 C902.679082,143.839342 892.317262,137.490372 881.965404,131.1374" id="Fill-160" fill="#DE492A"></path>
        <path d="M854.670769,114.222938 C854.199277,113.943748 853.276357,113.918909 852.824929,114.193131 C843.242612,119.946823 833.702429,125.76907 824.144189,131.562503 C814.801631,137.225781 805.450045,142.876143 796.100464,148.527498 C793.732974,149.958221 791.366487,151.388943 789,152.819666 C801.283864,172.266567 821.668356,185 844.755399,185 C870.942248,185 893.654104,168.616237 905,144.627785 C897.506291,140.091201 890.012583,135.554617 882.518874,131.019027 C873.239516,125.407415 863.97019,119.78686 854.670769,114.222938" id="Fill-161" fill="#452018"></path>
        <path d="M854.019193,114.222938 C853.548682,113.943748 852.627682,113.918909 852.177192,114.193131 C842.614806,119.946823 833.094465,125.76907 823.556104,131.562503 C814.232977,137.225781 804.900841,142.876143 795.570706,148.527498 C795.047137,148.845436 794.523569,149.162381 794,149.479326 C805.966999,170.798089 827.298169,185 851.636605,185 C876.483594,185 898.187169,170.193013 910,148.120139 C900.6098,142.416126 891.20959,136.718073 881.809379,131.019027 C872.549321,125.407415 863.299273,119.78686 854.019193,114.222938" id="Fill-162" fill="#DE492A"></path>
        <g id="Group-165" transform="translate(897.000000, 171.000000)">
            <mask id="mask-11" fill="white">
                <use xlink:href="#path-10"></use>
            </mask>
            <g id="Clip-164"></g>
            <path d="M1.81,0.142 C1.37,0.489 0.94,0.845 0.49,1.182 C0.93,0.84 1.38,0.496 1.81,0.142" id="Fill-163" fill="url(#linearGradient-12)" mask="url(#mask-11)"></path>
        </g>
        <g id="Group-168" transform="translate(888.000000, 172.000000)">
            <mask id="mask-14" fill="white">
                <use xlink:href="#path-13"></use>
            </mask>
            <g id="Clip-167"></g>
            <path d="M0.45,6.049 C3.54,4.385 6.5,2.468 9.31,0.32 C6.5,2.423 3.53,4.33 0.45,6.049" id="Fill-166" fill="url(#linearGradient-15)" mask="url(#mask-14)"></path>
        </g>
        <g id="Group-171" transform="translate(799.000000, 114.000000)">
            <mask id="mask-17" fill="white">
                <use xlink:href="#path-16"></use>
            </mask>
            <g id="Clip-170"></g>
            <path d="M83.13,17.173 C73.88,11.525 64.64,5.868 55.37,0.268 C54.9,-0.013 53.98,-0.038 53.53,0.238 C43.978,6.029 34.468,11.889 24.94,17.72 C16.898,22.643 8.848,27.553 0.8,32.465 C12.349,55.74 34.572,71.504 60.1,71.504 C70.62,71.504 80.57,68.822 89.45,64.049 C92.53,62.33 95.5,60.423 98.31,58.32 C98.37,58.275 98.43,58.228 98.49,58.182 C98.94,57.845 99.37,57.489 99.81,57.142 C106.39,51.813 112.08,45.198 116.59,37.624 C115.82,37.158 115.07,36.691 114.3,36.226 C103.92,29.869 93.52,23.523 83.13,17.173" id="Fill-169" fill="url(#linearGradient-18)" mask="url(#mask-17)"></path>
        </g>
        <path d="M864.591556,126.81867 C861.693896,129.632272 858.220743,131.88335 855,134.385203 C855.312988,134.924124 855.636072,135.462062 855.949059,136 C863.349702,134.094107 870.760441,132.158711 877,128.060746 C874.162919,126.373175 871.325838,124.684621 868.488756,123 C867.19642,124.289281 865.883892,125.558893 864.591556,126.81867" id="Fill-172" fill="#DE492A"></path>
        <path d="M866.094649,150.71463 C851.956625,154.425009 840.052708,150.242656 837.515857,132.554201 C837.067237,129.429512 837.141175,126.219285 837.337009,123 C832.834822,125.778507 828.334634,128.56104 823.83045,131.337535 C823.220966,131.713906 822.610483,132.088265 822,132.46363 C822.984166,146.427617 827.306505,158.879074 840.153623,166.58362 C850.158148,172.581412 861.088889,173.170122 871.88974,170.43388 C887.466546,166.49003 899.566297,158.634533 907,146.195152 C901.47468,142.79372 895.949361,139.3943 890.424041,135.994881 C885.048594,142.575344 877.055365,147.838507 866.094649,150.71463" id="Fill-173" fill="#DE492A"></path>
        <g id="Group-176" transform="translate(857.000000, 0.000000)">
            <mask id="mask-20" fill="white">
                <use xlink:href="#path-19"></use>
            </mask>
            <g id="Clip-175"></g>
            <path d="M0.75,0.199 C0.74,0.304 0.74,0.411 0.74,0.529 C0.75,9.465 0.76,18.4 0.76,27.336 C42.15,31.351 74.51,66.234 74.51,108.683 C74.51,121.764 71.42,134.119 65.96,145.082 C65.29,144.674 64.62,144.267 63.96,143.859 C63.91,143.96 63.86,144.064 63.81,144.166 C65.59,145.257 67.38,146.348 69.16,147.437 C76.66,152.012 84.16,156.568 91.65,161.158 C100.31,145.566 105.24,127.625 105.23,108.535 C105.21,50.025 58.76,2.316 0.75,0.199" id="Fill-174" fill="url(#linearGradient-21)" mask="url(#mask-20)"></path>
        </g>
        <g id="Group-179" transform="translate(857.000000, 27.000000)">
            <mask id="mask-23" fill="white">
                <use xlink:href="#path-22"></use>
            </mask>
            <g id="Clip-178"></g>
            <path d="M74.51,81.683 C74.51,39.234 42.15,4.351 0.76,0.336 C0.76,1.327 0.76,2.319 0.76,3.31 C40.79,7.191 72.08,40.922 72.08,81.969 C72.08,94.497 69.15,106.333 63.96,116.859 C64.62,117.267 65.29,117.674 65.96,118.082 C71.42,107.119 74.51,94.764 74.51,81.683" id="Fill-177" fill="url(#linearGradient-24)" mask="url(#mask-23)"></path>
        </g>
        <g id="Group-182" transform="translate(857.000000, 104.000000)">
            <mask id="mask-26" fill="white">
                <use xlink:href="#path-25"></use>
            </mask>
            <g id="Clip-181"></g>
            <path d="M27.21,17.489 C20.68,13.513 14.16,9.509 7.64,5.521 C5.75,4.366 3.88,3.185 1.95,2.097 C1.14,1.637 0.77,1.037 0.759797494,0.157 C0.76,0.286 0.76,0.416 0.76,0.546 C0.75,1.425 1.11,2.015 1.92,2.468 C3.78,3.521 5.59,4.663 7.42,5.78 C13.73,9.636 20.02,13.507 26.34,17.352 C33.22,21.546 40.13,25.706 47.01,29.9 C52.62,33.314 58.21,36.742 63.81,40.166 C63.86,40.064 63.91,39.96 63.96,39.859 C58.84,36.725 53.72,33.589 48.59,30.466 C41.47,26.128 34.33,21.826 27.21,17.489" id="Fill-180" fill="url(#linearGradient-27)" mask="url(#mask-26)"></path>
        </g>
        <g id="Group-185" transform="translate(857.000000, 50.000000)" fill="url(#linearGradient-28)">
            <path d="M0.76,0.062 C0.76,0.803 0.76,1.544 0.76,2.285 C0.76,1.544 0.76,0.803 0.76,0.062" id="Fill-183"></path>
        </g>
        <g id="Group-188" transform="translate(857.000000, 30.000000)">
            <mask id="mask-30" fill="white">
                <use xlink:href="#path-29"></use>
            </mask>
            <g id="Clip-187"></g>
            <path d="M0.76,0.31 C0.76,6.894 0.76,13.478 0.76,20.062 C0.76,20.803 0.76,21.544 0.76,22.285 L0.77,22.285 C0.77,38.948 0.77,55.611 0.77,72.273 C0.77,72.901 0.77,73.529 0.76,74.157 C0.77,75.037 1.14,75.637 1.95,76.097 C3.88,77.185 5.75,78.366 7.64,79.521 C14.16,83.509 20.68,87.513 27.21,91.489 C34.33,95.826 41.47,100.128 48.59,104.466 C53.72,107.589 58.84,110.725 63.96,113.859 C69.15,103.333 72.08,91.497 72.08,78.969 C72.08,37.922 40.79,4.191 0.76,0.31" id="Fill-186" fill="url(#linearGradient-31)" mask="url(#mask-30)"></path>
        </g>
        <g id="Group-191" transform="translate(920.000000, 143.000000)">
            <mask id="mask-33" fill="white">
                <use xlink:href="#path-32"></use>
            </mask>
            <g id="Clip-190"></g>
            <path d="M0.81,1.166 C0.97,1.262 1.12,1.358 1.28,1.454 C1.33,1.351 1.37,1.246 1.42,1.143 C1.27,1.048 1.11,0.953 0.96,0.859 C0.91,0.96 0.86,1.064 0.81,1.166" id="Fill-189" fill="url(#linearGradient-34)" mask="url(#mask-33)"></path>
        </g>
        <g id="Group-194" transform="translate(875.000000, 34.000000)">
            <mask id="mask-36" fill="white">
                <use xlink:href="#path-35"></use>
            </mask>
            <g id="Clip-193"></g>
            <path d="M0.45,0.129 C31.63,10.715 54.08,40.211 54.08,74.969 C54.08,87.497 51.15,99.333 45.96,109.859 C46.11,109.953 46.27,110.048 46.42,110.143 C51.39,99.51 54.21,87.356 54.21,74.442 C54.21,37.416 31.04,6.629 0.45,0.129" id="Fill-192" fill="url(#linearGradient-37)" mask="url(#mask-36)"></path>
        </g>
        <g id="Group-197" transform="translate(857.000000, 50.000000)" fill="url(#linearGradient-38)">
            <path d="M0.76,0.062 C0.76,0.803 0.76,1.544 0.76,2.285 C0.76,1.544 0.76,0.803 0.76,0.062" id="Fill-195"></path>
        </g>
        <g id="Group-200" transform="translate(857.000000, 104.000000)">
            <mask id="mask-40" fill="white">
                <use xlink:href="#path-39"></use>
            </mask>
            <g id="Clip-199"></g>
            <path d="M27.21,17.489 C20.68,13.513 14.16,9.509 7.64,5.521 C5.75,4.366 3.88,3.185 1.95,2.097 C1.14,1.637 0.77,1.037 0.759797494,0.157 C0.76,0.286 0.76,0.416 0.76,0.546 C0.75,1.425 1.11,2.015 1.92,2.468 C3.78,3.521 5.59,4.663 7.42,5.78 C13.73,9.636 20.02,13.507 26.34,17.352 C33.22,21.546 40.13,25.706 47.01,29.9 C52.62,33.314 58.21,36.742 63.81,40.166 C63.86,40.064 63.91,39.96 63.96,39.859 C58.84,36.725 53.72,33.589 48.59,30.466 C41.47,26.128 34.33,21.826 27.21,17.489" id="Fill-198" fill="url(#linearGradient-41)" mask="url(#mask-40)"></path>
        </g>
        <g id="Group-203" transform="translate(857.000000, 32.000000)">
            <mask id="mask-43" fill="white">
                <use xlink:href="#path-42"></use>
            </mask>
            <g id="Clip-202"></g>
            <path d="M18.45,2.129 C14.55,1.299 10.53,0.844 6.42,0.844 C4.51,0.844 2.63,0.959 0.76,1.142 C0.76,6.782 0.76,12.422 0.76,18.062 C0.76,18.803 0.76,19.544 0.76,20.285 L0.77,20.285 C0.77,36.948 0.77,53.611 0.77,70.273 C0.77,70.901 0.77,71.529 0.76,72.157 C0.77,73.037 1.14,73.637 1.95,74.097 C3.88,75.185 5.75,76.366 7.64,77.521 C14.16,81.509 20.68,85.513 27.21,89.489 C34.33,93.826 41.47,98.128 48.59,102.466 C53.72,105.589 58.84,108.725 63.96,111.859 C69.15,101.333 72.08,89.497 72.08,76.969 C72.08,42.211 49.63,12.715 18.45,2.129" id="Fill-201" fill="url(#linearGradient-44)" mask="url(#mask-43)"></path>
        </g>
        <path d="M858,66 C858,71.667317 858,77.3336585 858,83 C860.942786,81.4529493 862.981519,78.2515492 862.999969,74.5390177 C863.009194,70.7991737 860.961236,67.5577806 858,66" id="Fill-204" fill="#DC5C32"></path>
        <path d="M896.546085,83.0000746 C891.847288,82.9805688 888.01028,86.7862585 888.000021,91.4881897 C887.989761,96.1582955 891.795991,99.9783579 896.474269,99.999917 C901.132028,100.020449 904.958777,96.2301591 904.999814,91.5733993 C905.030592,86.8673617 901.234622,83.0185539 896.546085,83.0000746" id="Fill-205" fill="#DC5C32"></path>
        <path d="M876.155502,117 C876.103668,117.104255 876.041467,117.200332 876,117.306631 C878.529506,118.836719 881.069378,120.370896 883.60925,121.895873 C885.330144,122.933308 887.061404,123.965632 888.792663,125 C888.865231,124.912099 888.937799,124.818066 889,124.726076 C887.507177,123.829692 886.003987,122.935352 884.511164,122.035901 C881.722488,120.362719 878.944179,118.679315 876.155502,117" id="Fill-206" fill="#DC5C32"></path>
        <path d="M882.626252,112.000004 C879.696964,111.996922 877.191917,113.729844 876,116.235236 C878.717167,117.92296 881.424233,119.614793 884.141401,121.296354 C885.595944,122.200309 887.060588,123.099127 888.515131,124 C889.444422,122.748845 889.999977,121.197741 889.999977,119.512071 C890.010078,115.36518 886.707053,112.004113 882.626252,112.000004" id="Fill-207" fill="#DC5C32"></path>
        <path d="M882.056346,63.0001544 C879.282598,62.9786586 877.010376,65.20399 877.00014,67.9615993 C876.97967,70.7151142 879.200716,72.9772956 881.933524,72.9998151 C884.707272,73.0233581 886.979494,70.7959795 886.999965,68.0383702 C887.0102,65.2828081 884.789154,63.0216503 882.056346,63.0001544" id="Fill-208" fill="#DC5C32"></path>
        <path d="M868.469209,101.000074 C866.549882,101.012396 864.989787,102.601923 865.00005,104.519008 C865.020578,106.43712 866.611464,108.010218 868.520528,107.99995 C870.439855,107.989682 872.010214,106.410423 871.99995,104.490257 C871.989686,102.521831 870.439855,100.987752 868.469209,101.000074" id="Fill-209" fill="#DC5C32"></path>
        <path d="M906.448682,110.000451 C904.529438,110.031293 902.979675,111.621748 903.000202,113.549416 C903.020728,115.475028 904.611545,117.025387 906.530789,116.999685 C908.491086,116.972955 910.020322,115.403062 909.999796,113.441467 C909.969006,111.526136 908.367926,109.969608 906.448682,110.000451" id="Fill-210" fill="#DC5C32"></path>
        <path d="M875.458885,83.000039 C872.993142,83.010313 871,85.0240021 871,87.5000177 C871,90.0058278 872.993142,92.0030786 875.49998,91.9999964 C877.996545,91.9969143 880.010235,89.9791156 879.999961,87.4887164 C879.989687,85.0085912 877.955449,82.9897651 875.458885,83.000039" id="Fill-211" fill="#DC5C32"></path>
        <path d="M858,32 C858,32.4193488 858,32.8396937 858,33.2590425 C898.143467,36.4315508 929.713479,69.0809936 929.713479,108.918135 C929.713479,121.331258 926.62784,133.03617 921.20033,143.381436 C921.542063,143.58862 921.873744,143.793812 922.215476,144 C927.813851,133.440578 931,121.472701 931,108.776692 C931,68.281143 898.847033,35.1077632 858,32" id="Fill-212" fill="#6D312C"></path>
        <path d="M849,29.7646891 C849,19.9658285 849,10.1679683 848.990047,0.369107752 C848.990047,0.248072419 848.980095,0.122035625 848.970142,0 C791.203539,2.11061614 744.974134,49.9155716 745.000011,108.501674 C745.007973,127.545234 749.91367,145.442458 758.509838,161 C762.287892,158.63631 766.079879,156.293626 769.874853,153.955944 C773.62902,151.643269 777.386173,149.336595 781.143326,147.028921 C774.901973,135.697614 771.338898,122.66981 771.338898,108.801762 C771.338898,65.4751139 806.020159,30.3068473 849,29.7646891" id="Fill-213" fill="#E3672A"></path>
        <path d="M800.781909,134.800981 C805.900628,131.669138 811.018347,128.5343 816.141063,125.409443 C821.334734,122.239674 826.538398,119.084876 831.732069,115.916105 C836.997694,112.703421 842.246329,109.463789 847.526944,106.275058 C848.530301,105.670247 849,104.959643 849,103.746029 C848.980013,79.1633541 848.980013,54.581677 848.980013,30 C805.823677,30.5409366 771,65.6299582 771,108.858978 C771,122.695778 774.577707,135.694225 780.844689,147 C782.838411,145.782394 784.832133,144.564787 786.825855,143.346183 C791.479872,140.500776 796.129891,137.648384 800.781909,134.800981" id="Fill-214" fill="#E3672A"></path>
        <path d="M843.321173,33 C806.141006,33 776,66.7595868 776,108.402761 C776,121.686366 779.077397,134.160068 784.462098,145 C785.367331,144.443441 786.273559,143.88788 787.179786,143.331321 C791.80731,140.487684 796.430858,137.637065 801.056394,134.791433 C806.145974,131.661537 811.234561,128.528649 816.328115,125.405735 C821.492221,122.237937 826.666263,119.085101 831.830368,115.918301 C837.066018,112.707614 842.284775,109.469997 847.53533,106.283249 C848.532975,105.678814 849,104.968653 849,103.755793 C848.980127,80.2656158 848.980127,56.776436 848.980127,33.2862588 C847.115007,33.1117107 845.230014,33 843.321173,33" id="Fill-215" fill="#452018"></path>
        <path d="M783,108.775718 C783,120.694693 785.464307,131.965713 789.84463,142 C793.471553,139.771273 797.098476,137.541543 800.7254,135.312816 C805.850117,132.165315 810.973835,129.014806 816.102554,125.874327 C821.302312,122.688712 826.512075,119.518142 831.711832,116.33353 C836.983628,113.104784 842.238414,109.848957 847.525218,106.644284 C848.529751,106.036449 849,105.322294 849,104.102612 C848.979989,80.401073 848.979989,56.7005365 848.979989,33 C812.381581,34.0722364 783,67.5743575 783,108.775718" id="Fill-216" fill="#DB393B"></path>
        <g id="Group-219" transform="translate(790.000000, 33.000000)">
            <mask id="mask-46" fill="white">
                <use xlink:href="#path-45"></use>
            </mask>
            <g id="Clip-218"></g>
            <path d="M0.201,75.505 C0.201,86.026 2.131,96.042 5.611,105.144 C7.341,104.083 9.071,103.022 10.801,101.962 C15.923,98.824 21.044,95.683 26.17,92.552 C31.367,89.376 36.574,86.215 41.771,83.04 C47.04,79.821 52.292,76.575 57.576,73.38 C58.58,72.774 59.05,72.062 59.05,70.846 C59.03,47.429 59.03,24.013 59.03,0.597 C25.835,5.471 0.201,37.131 0.201,75.505" id="Fill-217" fill="url(#linearGradient-47)" mask="url(#mask-46)"></path>
        </g>
        <path d="M830.38669,63.0006082 C823.596643,63.0676933 818.009022,68.7038483 818.000011,75.4934676 C817.991,82.2530488 823.607656,87.9292546 830.372673,87.9993436 C837.139693,88.0694326 842.865478,82.5173844 842.997635,75.7558006 C843.133796,68.757917 837.372969,62.9315205 830.38669,63.0006082" id="Fill-220" fill="#D0232A"></path>
        <path d="M814.225974,100.003273 C810.030347,99.8758046 806.19403,103.489088 806.00787,107.743729 C805.815703,112.11781 809.165599,115.772244 813.567405,115.989041 C818.253456,116.21989 821.95966,112.777234 821.999694,108.153235 C822.037727,103.818298 818.523689,100.134757 814.225974,100.003273" id="Fill-221" fill="#64B445"></path>
    </g>
</svg>
