
<svg width="1144px" height="327px" viewBox="0 0 1144 327" version="1.1" xmlns="http://www.w3.org/2000/svg" xmlns:xlink="http://www.w3.org/1999/xlink">
    <!-- Generator: Sketch 50 (54983) - http://www.bohemiancoding.com/sketch -->
    <desc>Created with Sketch.</desc>
    <defs>
        <path d="M201.486,0.389 C255.138,0.394 308.791,0.337 362.443,0.424 C381.452,0.455 396.559,12.951 400.193,31.22 C404.628,53.516 388.084,74.954 365.398,76.294 C364.235,76.363 363.066,76.371 361.901,76.371 C254.262,76.375 146.624,76.395 38.985,76.357 C19.724,76.35 3.861,62.256 1.237,43.101 C-1.243,24.996 10.296,7.253 28.231,2.092 C32.167,0.959 36.42,0.463 40.528,0.455 C94.181,0.35 147.833,0.385 201.486,0.389" id="path-1"></path>
        <linearGradient x1="50.0000942%" y1="-0.000324885984%" x2="50.0000942%" y2="99.999701%" id="linearGradient-3">
            <stop stop-color="#F9D220" offset="0%"></stop>
            <stop stop-color="#DE492A" offset="100%"></stop>
        </linearGradient>
        <path d="M105.055,126.167 C106.021,123.373 106.602,121.727 107.159,120.074 C118.803,85.534 130.542,51.026 142.046,16.44 C147.681,-0.504 155.317,-0.059 172.189,0.47 C178.544,0.669 183.07,7.409 184.137,13.788 C192.538,64.042 200.95,114.294 209.368,164.546 C211.054,174.613 205.862,182.718 196.638,184.354 C186.487,186.154 177.837,180.344 176.083,170.176 C170.677,138.835 165.414,107.469 160.086,76.115 C159.785,74.339 159.407,72.576 158.809,69.484 C156.756,75.395 155.096,80.057 153.516,84.746 C143.952,113.138 134.438,141.547 124.841,169.928 C120.075,184.021 113.064,185.345 98.434,183.879 C91.225,183.157 87.357,176.317 85.2,169.936 C74.541,138.4 63.907,106.856 53.26,75.316 C52.785,73.91 52.278,72.514 51.25,69.589 C50.153,75.435 49.257,79.847 48.505,84.283 C43.692,112.685 38.904,141.09 34.122,169.496 C32.358,179.974 23.946,186.085 13.569,184.387 C4.166,182.848 -1.035,174.558 0.7,164.222 C8.941,115.122 17.156,66.017 25.313,16.903 C27.298,4.949 32.351,0.466 44.395,0.448 C59.403,0.427 63.313,2.958 68.183,17.237 C79.895,51.579 91.389,85.995 102.977,120.38 C103.489,121.898 104.058,123.398 105.055,126.167" id="path-4"></path>
        <linearGradient x1="49.9999143%" y1="-0.000277807227%" x2="49.9999143%" y2="100.000048%" id="linearGradient-6">
            <stop stop-color="#F9D220" offset="0%"></stop>
            <stop stop-color="#DE492A" offset="100%"></stop>
        </linearGradient>
        <path d="M32.23,94.398 C51.21,94.398 69.69,94.674 88.15,94.22 C93.32,94.093 98.72,92.478 103.51,90.394 C115.67,85.114 121.8,74.053 120.9,60.572 C120.04,47.729 112.59,38.356 99.5,34.815 C94.11,33.355 88.35,32.79 82.73,32.689 C67.25,32.411 47.68,32.585 32.19,32.604 C30.91,32.606 33.66,32.436 32.19,32.553 C32.19,53.108 32.23,73.721 32.23,94.398 Z M117.34,120.57 C126.61,133.697 135.61,146.272 144.44,158.966 C151.55,169.197 146.14,182.601 134.21,184.341 C126.79,185.423 121.38,181.965 117.23,176.079 C106.47,160.834 95.62,145.652 84.98,130.328 C83.07,127.573 81.06,126.46 77.66,126.503 C60.27,126.614 47.71,126.586 32.26,126.586 C32.17,128.424 32.03,130.018 32.02,131.613 C32,143.61 32.07,155.607 31.99,167.603 C31.93,177.486 25.32,184.474 16.14,184.58 C7,184.686 0.26,177.734 0.25,167.749 C0.18,117.596 0.18,67.443 0.25,17.291 C0.26,6.731 6.62,0.531 17.12,0.512 C40.78,0.469 17.12,0.561 88.1,0.561 C106.21,0.561 122.92,5.299 137.21,17.212 C164.13,39.648 166.05,96.117 124.71,116.889 C122.5,118.003 120.27,119.104 117.34,120.57 Z" id="path-7"></path>
        <linearGradient x1="50.0032535%" y1="0.000242602086%" x2="50.0032535%" y2="100.000437%" id="linearGradient-9">
            <stop stop-color="#F9D220" offset="0%"></stop>
            <stop stop-color="#DE492A" offset="100%"></stop>
        </linearGradient>
        <path d="M57.842,33.219 C55.569,33.219 50.232,33.219 52.011,33.219 C57.842,33.219 57.842,33.185 17.039,33.185 C7.435,33.185 0.646,26.067 0.726,16.673 C0.805,7.374 7.378,0.548 16.796,0.527 C92.981,0.527 93.067,0.446 131.203,0.525 C140.217,0.544 147.379,7.926 147.37,16.72 C147.36,25.971 140.875,33.114 131.454,33.114 C89.937,33.114 102.032,33.219 95.984,33.219 C89.937,33.219 92.365,33.219 89.937,33.219 C89.937,35.593 89.937,37.535 89.937,39.477 C89.936,82.276 89.962,125.074 89.913,167.873 C89.903,177.444 83.362,184.333 74.369,184.575 C65.722,184.808 58.843,178.322 57.949,169.059 C57.837,167.902 57.854,166.731 57.847,165.566 C57.833,163.068 57.842,160.57 57.842,158.072 C57.842,118.604 57.842,79.137 57.842,39.669 C57.842,37.714 57.842,35.758 57.842,33.219" id="path-10"></path>
        <linearGradient x1="49.9995537%" y1="0.000325920719%" x2="49.9995537%" y2="100.000499%" id="linearGradient-12">
            <stop stop-color="#F9D220" offset="0%"></stop>
            <stop stop-color="#DE492A" offset="100%"></stop>
        </linearGradient>
        <path d="M1.81,0.142 C1.37,0.489 0.94,0.845 0.49,1.182 C0.93,0.84 1.38,0.496 1.81,0.142" id="path-13"></path>
        <linearGradient x1="0%" y1="50%" x2="100.295455%" y2="50%" id="linearGradient-15">
            <stop stop-color="#F5BC74" offset="0%"></stop>
            <stop stop-color="#F9DAB0" offset="100%"></stop>
        </linearGradient>
        <path d="M0.45,6.049 C3.54,4.385 6.5,2.468 9.31,0.32 C6.5,2.423 3.53,4.33 0.45,6.049" id="path-16"></path>
        <linearGradient x1="0%" y1="49.9912725%" x2="100.06772%" y2="49.9912725%" id="linearGradient-18">
            <stop stop-color="#F5BC74" offset="0%"></stop>
            <stop stop-color="#F9DAB0" offset="100%"></stop>
        </linearGradient>
        <path d="M83.13,17.173 C73.88,11.525 64.64,5.868 55.37,0.268 C54.9,-0.013 53.98,-0.038 53.53,0.238 C43.978,6.029 34.468,11.889 24.94,17.72 C16.898,22.643 8.848,27.553 0.8,32.465 C12.349,55.74 34.572,71.504 60.1,71.504 C70.62,71.504 80.57,68.822 89.45,64.049 C92.53,62.33 95.5,60.423 98.31,58.32 C98.37,58.275 98.43,58.228 98.49,58.182 C98.94,57.845 99.37,57.489 99.81,57.142 C106.39,51.813 112.08,45.198 116.59,37.624 C115.82,37.158 115.07,36.691 114.3,36.226 C103.92,29.869 93.52,23.523 83.13,17.173" id="path-19"></path>
        <linearGradient x1="0%" y1="50.0002683%" x2="99.9965455%" y2="50.0002683%" id="linearGradient-21">
            <stop stop-color="#F5BC74" offset="0%"></stop>
            <stop stop-color="#F9DAB0" offset="100%"></stop>
        </linearGradient>
        <path d="M0.75,0.199 C0.74,0.304 0.74,0.411 0.74,0.529 C0.75,9.465 0.76,18.4 0.76,27.336 C42.15,31.351 74.51,66.234 74.51,108.683 C74.51,121.764 71.42,134.119 65.96,145.082 C65.29,144.674 64.62,144.267 63.96,143.859 C63.91,143.96 63.86,144.064 63.81,144.166 C65.59,145.257 67.38,146.348 69.16,147.437 C76.66,152.012 84.16,156.568 91.65,161.158 C100.31,145.566 105.24,127.625 105.23,108.535 C105.21,50.025 58.76,2.316 0.75,0.199" id="path-22"></path>
        <linearGradient x1="49.9952076%" y1="0%" x2="49.9952076%" y2="100%" id="linearGradient-24">
            <stop stop-color="#F9D220" offset="0%"></stop>
            <stop stop-color="#DE492A" offset="100%"></stop>
        </linearGradient>
        <path d="M74.51,81.683 C74.51,39.234 42.15,4.351 0.76,0.336 C0.76,1.327 0.76,2.319 0.76,3.31 C40.79,7.191 72.08,40.922 72.08,81.969 C72.08,94.497 69.15,106.333 63.96,116.859 C64.62,117.267 65.29,117.674 65.96,118.082 C71.42,107.119 74.51,94.764 74.51,81.683" id="path-25"></path>
        <linearGradient x1="49.9932203%" y1="-8.49285751e-05%" x2="49.9932203%" y2="99.9999151%" id="linearGradient-27">
            <stop stop-color="#F9D220" offset="0%"></stop>
            <stop stop-color="#DE492A" offset="100%"></stop>
        </linearGradient>
        <path d="M27.21,17.489 C20.68,13.513 14.16,9.509 7.64,5.521 C5.75,4.366 3.88,3.185 1.95,2.097 C1.14,1.637 0.77,1.037 0.759797494,0.157 C0.76,0.286 0.76,0.416 0.76,0.546 C0.75,1.425 1.11,2.015 1.92,2.468 C3.78,3.521 5.59,4.663 7.42,5.78 C13.73,9.636 20.02,13.507 26.34,17.352 C33.22,21.546 40.13,25.706 47.01,29.9 C52.62,33.314 58.21,36.742 63.81,40.166 C63.86,40.064 63.91,39.96 63.96,39.859 C58.84,36.725 53.72,33.589 48.59,30.466 C41.47,26.128 34.33,21.826 27.21,17.489" id="path-28"></path>
        <linearGradient x1="50.0003184%" y1="0%" x2="50.0003184%" y2="100.00025%" id="linearGradient-30">
            <stop stop-color="#F9D220" offset="0%"></stop>
            <stop stop-color="#DE492A" offset="100%"></stop>
        </linearGradient>
        <linearGradient x1="0%" y1="0%" x2="0%" y2="100.004498%" id="linearGradient-31">
            <stop stop-color="#F9D220" offset="0%"></stop>
            <stop stop-color="#DE492A" offset="100%"></stop>
        </linearGradient>
        <path d="M0.76,0.31 C0.76,6.894 0.76,13.478 0.76,20.062 C0.76,20.803 0.76,21.544 0.76,22.285 L0.77,22.285 C0.77,38.948 0.77,55.611 0.77,72.273 C0.77,72.901 0.77,73.529 0.76,74.157 C0.77,75.037 1.14,75.637 1.95,76.097 C3.88,77.185 5.75,78.366 7.64,79.521 C14.16,83.509 20.68,87.513 27.21,91.489 C34.33,95.826 41.47,100.128 48.59,104.466 C53.72,107.589 58.84,110.725 63.96,113.859 C69.15,103.333 72.08,91.497 72.08,78.969 C72.08,37.922 40.79,4.191 0.76,0.31" id="path-32"></path>
        <linearGradient x1="50%" y1="0%" x2="50%" y2="100%" id="linearGradient-34">
            <stop stop-color="#F9D220" offset="0%"></stop>
            <stop stop-color="#DE492A" offset="100%"></stop>
        </linearGradient>
        <path d="M0.81,1.166 C0.97,1.262 1.12,1.358 1.28,1.454 C1.33,1.351 1.37,1.246 1.42,1.143 C1.27,1.048 1.11,0.953 0.96,0.859 C0.91,0.96 0.86,1.064 0.81,1.166" id="path-35"></path>
        <linearGradient x1="0.01%" y1="29.7%" x2="61.33%" y2="29.7%" id="linearGradient-37">
            <stop stop-color="#F5BC74" offset="0%"></stop>
            <stop stop-color="#F9DAB0" offset="100%"></stop>
        </linearGradient>
        <path d="M0.45,0.129 C31.63,10.715 54.08,40.211 54.08,74.969 C54.08,87.497 51.15,99.333 45.96,109.859 C46.11,109.953 46.27,110.048 46.42,110.143 C51.39,99.51 54.21,87.356 54.21,74.442 C54.21,37.416 31.04,6.629 0.45,0.129" id="path-38"></path>
        <linearGradient x1="0%" y1="50%" x2="99.9955357%" y2="50%" id="linearGradient-40">
            <stop stop-color="#F5BC74" offset="0%"></stop>
            <stop stop-color="#F9DAB0" offset="100%"></stop>
        </linearGradient>
        <linearGradient x1="0%" y1="49.9775079%" x2="0.47%" y2="49.9775079%" id="linearGradient-41">
            <stop stop-color="#F5BC74" offset="0%"></stop>
            <stop stop-color="#F9DAB0" offset="100%"></stop>
        </linearGradient>
        <path d="M27.21,17.489 C20.68,13.513 14.16,9.509 7.64,5.521 C5.75,4.366 3.88,3.185 1.95,2.097 C1.14,1.637 0.77,1.037 0.759797494,0.157 C0.76,0.286 0.76,0.416 0.76,0.546 C0.75,1.425 1.11,2.015 1.92,2.468 C3.78,3.521 5.59,4.663 7.42,5.78 C13.73,9.636 20.02,13.507 26.34,17.352 C33.22,21.546 40.13,25.706 47.01,29.9 C52.62,33.314 58.21,36.742 63.81,40.166 C63.86,40.064 63.91,39.96 63.96,39.859 C58.84,36.725 53.72,33.589 48.59,30.466 C41.47,26.128 34.33,21.826 27.21,17.489" id="path-42"></path>
        <linearGradient x1="0.000320419404%" y1="49.9987503%" x2="99.990981%" y2="49.9987503%" id="linearGradient-44">
            <stop stop-color="#F5BC74" offset="0%"></stop>
            <stop stop-color="#F9DAB0" offset="100%"></stop>
        </linearGradient>
        <path d="M18.45,2.129 C14.55,1.299 10.53,0.844 6.42,0.844 C4.51,0.844 2.63,0.959 0.76,1.142 C0.76,6.782 0.76,12.422 0.76,18.062 C0.76,18.803 0.76,19.544 0.76,20.285 L0.77,20.285 C0.77,36.948 0.77,53.611 0.77,70.273 C0.77,70.901 0.77,71.529 0.76,72.157 C0.77,73.037 1.14,73.637 1.95,74.097 C3.88,75.185 5.75,76.366 7.64,77.521 C14.16,81.509 20.68,85.513 27.21,89.489 C34.33,93.826 41.47,98.128 48.59,102.466 C53.72,105.589 58.84,108.725 63.96,111.859 C69.15,101.333 72.08,89.497 72.08,76.969 C72.08,42.211 49.63,12.715 18.45,2.129" id="path-45"></path>
        <linearGradient x1="0%" y1="50.0004504%" x2="100.002384%" y2="50.0004504%" id="linearGradient-47">
            <stop stop-color="#F5BC74" offset="0%"></stop>
            <stop stop-color="#F9DAB0" offset="100%"></stop>
        </linearGradient>
        <path d="M0.201,75.505 C0.201,86.026 2.131,96.042 5.611,105.144 C7.341,104.083 9.071,103.022 10.801,101.962 C15.923,98.824 21.044,95.683 26.17,92.552 C31.367,89.376 36.574,86.215 41.771,83.04 C47.04,79.821 52.292,76.575 57.576,73.38 C58.58,72.774 59.05,72.062 59.05,70.846 C59.03,47.429 59.03,24.013 59.03,0.597 C25.835,5.471 0.201,37.131 0.201,75.505" id="path-48"></path>
        <linearGradient x1="0%" y1="50.0004783%" x2="100%" y2="50.0004783%" id="linearGradient-50">
            <stop stop-color="#F5BC74" offset="0%"></stop>
            <stop stop-color="#F9DAB0" offset="100%"></stop>
        </linearGradient>
    </defs>
    <g id="Page-2" stroke="none" stroke-width="1" fill="none" fill-rule="evenodd">
        <g id="Group-Copy">
            <g id="Group-114" transform="translate(0.000000, 250.000000)">
                <mask id="mask-2" fill="white">
                    <use xlink:href="#path-1"></use>
                </mask>
                <g id="Clip-113"></g>
                <path d="M201.486,0.389 C255.138,0.394 308.791,0.337 362.443,0.424 C381.452,0.455 396.559,12.951 400.193,31.22 C404.628,53.516 388.084,74.954 365.398,76.294 C364.235,76.363 363.066,76.371 361.901,76.371 C254.262,76.375 146.624,76.395 38.985,76.357 C19.724,76.35 3.861,62.256 1.237,43.101 C-1.243,24.996 10.296,7.253 28.231,2.092 C32.167,0.959 36.42,0.463 40.528,0.455 C94.181,0.35 147.833,0.385 201.486,0.389" id="Fill-112" fill="url(#linearGradient-3)" mask="url(#mask-2)"></path>
            </g>
            <path d="M443.69837,281.107727 L443.69837,283.205918 C443.69837,287.578628 443.011866,290.711139 441.815217,293.577682 L449.88587,293.577682 L449.88587,281.107727 L443.69837,281.107727 Z M435,293.577682 L436.972826,293.577682 C438.52817,290.001891 439.275453,286.486189 439.275453,279.423263 L439.275453,277 L454.48913,277 L454.48913,293.577682 L457,293.577682 L456.402174,302 L452.546196,302 L452.546196,297.685409 L439.454801,297.685409 L439.154891,302 L435,302 L435,293.577682 Z" id="Fill-115" fill="#FFFFFE"></path>
            <path d="M482,277 L482,297.733415 L477.361984,297.733415 L477.361984,281.11726 L471.277036,281.11726 L471.277036,282.68715 C471.277036,294.88984 469.258761,298 464.439,298 C463.685912,298 462.571343,297.881518 462,297.733415 L462.300231,293.971602 C462.511095,294.001222 462.72196,294.030843 463.024199,294.030843 C465.523446,294.030843 466.939251,292.460953 466.939251,281.294983 L466.939251,277 L482,277" id="Fill-116" fill="#FFFFFE"></path>
            <path d="M502.418921,287.199486 L502.418921,281.170199 L497.866604,281.170199 C495.635076,281.170199 494.266406,282.189247 494.266406,284.229344 C494.266406,286.000429 495.545815,287.199486 497.776351,287.199486 L502.418921,287.199486 Z M507,298 L502.418921,298 L502.418921,291.27968 L498.818723,291.27968 L494.355667,298 L489,298 L494.087884,290.499643 C491.439804,289.510596 489.624828,287.380494 489.624828,283.93033 C489.624828,279.580123 492.600198,277 497.479806,277 L507,277 L507,298 Z" id="Fill-117" fill="#FFFFFE"></path>
            <polyline id="Fill-118" fill="#FFFFFE" points="533.243103 281.260203 527 281.260203 527 277 544 277 544 281.260203 537.756897 281.260203 537.756897 298 533.243103 298 533.243103 281.260203"></polyline>
            <polyline id="Fill-119" fill="#FFFFFE" points="552 277 567.849906 277 567.849906 281.109196 556.592871 281.109196 556.592871 285.369399 566.499062 285.369399 566.499062 289.479594 556.592871 289.479594 556.592871 293.890804 568 293.890804 568 298 552 298 552 277"></polyline>
            <polyline id="Fill-120" fill="#FFFFFE" points="581.282949 287.319491 574.298522 277 579.671924 277 584.060202 283.810324 588.477337 277 593.701478 277 586.716056 287.260489 594 298 588.626598 298 583.939798 290.799657 579.224141 298 574 298 581.282949 287.319491"></polyline>
            <polyline id="Fill-121" fill="#FFFFFE" points="614 277 618.593407 277 618.593407 286.180437 627.064364 277 632.612245 277 624.11146 285.909424 633 298 627.481947 298 621.009419 289.060574 618.593407 291.579694 618.593407 298 614 298 614 277"></polyline>
            <polyline id="Fill-122" fill="#FFFFFE" points="644.24408 281.260203 638 281.260203 638 277 655 277 655 281.260203 648.756897 281.260203 648.756897 298 644.24408 298 644.24408 281.260203"></polyline>
            <path d="M677.239034,287.999494 C677.239034,284.352917 674.637753,281.314103 670.970922,281.314103 C667.304091,281.314103 664.760966,284.293153 664.760966,287.999494 C664.760966,291.647083 667.363233,294.685897 671.030064,294.685897 C674.695909,294.685897 677.239034,291.706847 677.239034,287.999494 Z M660,287.999494 C660,281.952254 664.642681,277 671.030064,277 C677.416461,277 682,281.89249 682,287.999494 C682,294.046733 677.358305,299 670.970922,299 C664.584524,299 660,294.10751 660,287.999494 Z" id="Fill-123" fill="#FFFFFE"></path>
            <path d="M713.07395,293.949807 C715.131092,293.949807 716.371429,293.229773 716.371429,291.609696 C716.371429,290.199629 715.312605,289.329587 712.922689,289.329587 L707.537815,289.329587 L707.537815,293.949807 L713.07395,293.949807 Z M711.833613,285.489404 C713.890756,285.489404 715.191597,284.829373 715.191597,283.210296 C715.191597,281.83023 714.102521,281.050193 712.136134,281.050193 L707.537815,281.050193 L707.537815,285.489404 L711.833613,285.489404 Z M703,277 L712.831933,277 C715.251092,277 717.157983,277.660031 718.368067,278.859089 C719.335126,279.819134 719.820168,280.98919 719.820168,282.489261 C719.820168,284.859374 718.54958,286.180437 717.036975,287.020477 C719.487395,287.949521 721,289.359589 721,292.239726 C721,296.079909 717.853782,298 713.07395,298 L703,298 L703,277 Z" id="Fill-124" fill="#FFFFFE"></path>
            <polyline id="Fill-125" fill="#FFFFFE" points="728 277 732.593647 277 732.593647 286.180437 741.064054 277 746.613219 277 738.111989 285.909424 747 298 741.481658 298 735.009786 289.060574 732.593647 291.579694 732.593647 298 728 298 728 277"></polyline>
            <path d="M767.975645,277 L773,277 L764.905874,292.978668 C763.07063,296.582212 760.965616,298 758.017192,298 C756.213037,298 754.797994,297.527404 753.474212,296.788973 L755.27937,293.451264 C756.121777,293.953397 756.965186,294.13062 757.776504,294.13062 C758.618911,294.13062 759.581662,293.746636 760.424069,292.476534 L752,277 L757.174785,277 L762.891117,287.928782 L767.975645,277" id="Fill-126" fill="#FFFFFE"></path>
            <path d="M777,287.999494 C777,281.952254 781.411992,277 787.734868,277 C791.617421,277 793.794984,278.519407 795.705867,280.464248 L793.000826,283.684378 C791.411528,282.196372 790.059497,281.314103 787.706435,281.314103 C784.235667,281.314103 781.735538,284.293153 781.735538,287.999494 C781.735538,291.647083 784.176841,294.685897 787.706435,294.685897 C790.059497,294.685897 791.499768,293.713477 793.118479,292.19407 L796,295.383811 C793.883224,297.723698 791.530162,299 787.559368,299 C781.500232,299 777,294.168286 777,287.999494" id="Fill-127" fill="#FFFFFE"></path>
            <polyline id="Fill-128" fill="#FFFFFE" points="803 277 807.682432 277 807.682432 285.310396 816.317568 285.310396 816.317568 277 821 277 821 298 816.317568 298 816.317568 289.569599 807.682432 289.569599 807.682432 298 803 298 803 277"></polyline>
            <path d="M846.239034,287.999494 C846.239034,284.352917 843.637753,281.314103 839.970922,281.314103 C836.304091,281.314103 833.760966,284.293153 833.760966,287.999494 C833.760966,291.647083 836.363233,294.685897 840.029078,294.685897 C843.695909,294.685897 846.239034,291.706847 846.239034,287.999494 Z M829,287.999494 C829,281.952254 833.642681,277 840.029078,277 C846.416461,277 851,281.89249 851,287.999494 C851,294.046733 846.357319,299 839.970922,299 C833.583539,299 829,294.10751 829,287.999494 Z" id="Fill-129" fill="#FFFFFE"></path>
            <path d="M889,277 L889,297.733415 L884.361446,297.733415 L884.361446,281.11726 L878.277108,281.11726 L878.277108,282.68715 C878.277108,294.88984 876.259036,298 871.439759,298 C870.686747,298 869.572289,297.881518 869,297.733415 L869.301205,293.971602 C869.512048,294.001222 869.722892,294.030843 870.024096,294.030843 C872.524096,294.030843 873.939759,292.460953 873.939759,281.294983 L873.939759,277 L889,277" id="Fill-130" fill="#FFFFFE"></path>
            <path d="M921.202586,287.999494 C921.202586,284.262765 918.939655,281.284728 915.681034,281.284728 C912.422414,281.284728 910.219828,284.171601 910.219828,287.999494 C910.219828,291.768636 912.452586,294.74566 915.741379,294.74566 C919,294.74566 921.202586,291.828399 921.202586,287.999494 Z M905.543103,290.036512 L902.646552,290.036512 L902.646552,298.635342 L898,298.635342 L898,277.364658 L902.646552,277.364658 L902.646552,285.841936 L905.573276,285.841936 C906.448276,280.798517 910.400862,277 915.741379,277 C921.775862,277 926,281.831714 926,287.999494 C926,294.10751 921.74569,299 915.681034,299 C910.280172,299 906.357759,295.201483 905.543103,290.036512 Z" id="Fill-131" fill="#FFFFFE"></path>
            <path d="M938.738462,288.669556 L938.738462,293.829801 L943.969231,293.829801 C946.184615,293.829801 947.261538,292.989761 947.261538,291.159674 C947.261538,289.539597 946.184615,288.669556 943.938462,288.669556 L938.738462,288.669556 Z M938.738462,284.829373 L944.430769,284.829373 C949.292308,284.829373 952,287.409496 952,291.339683 C952,295.629887 948.953846,298 943.969231,298 L934,298 L934,277 L950.523077,277 L950.523077,281.170199 L938.738462,281.170199 L938.738462,284.829373 Z" id="Fill-132" fill="#FFFFFE"></path>
            <polyline id="Fill-133" fill="#FFFFFE" points="977 298 972.462687 298 972.462687 284.229344 963.328358 298 959 298 959 277 963.537313 277 963.537313 290.770656 972.731343 277 977 277 977 298"></polyline>
            <polyline id="Fill-134" fill="#FFFFFE" points="990.243103 281.260203 984 281.260203 984 277 1001 277 1001 281.260203 994.756897 281.260203 994.756897 298 990.243103 298 990.243103 281.260203"></polyline>
            <polyline id="Fill-135" fill="#FFFFFE" points="1033.20708 298 1033.20708 292.419734 1030.41962 289.419591 1024.51499 298 1019 298 1027.30245 286.090433 1019.29973 277 1024.78474 277 1033.20708 286.810467 1033.20708 277 1037.79292 277 1037.79292 286.810467 1046.21526 277 1051.70027 277 1043.69755 286.090433 1052 298 1046.48501 298 1040.55041 289.419591 1037.79292 292.419734 1037.79292 298 1033.20708 298"></polyline>
            <polyline id="Fill-136" fill="#FFFFFE" points="1076 298 1071.46269 298 1071.46269 284.229344 1062.32836 298 1058 298 1058 277 1062.53731 277 1062.53731 290.770656 1071.73134 277 1076 277 1076 298"></polyline>
            <polyline id="Fill-137" fill="#FFFFFE" points="1089.2431 281.260203 1083 281.260203 1083 277 1100 277 1100 281.260203 1093.7569 281.260203 1093.7569 298 1089.2431 298 1089.2431 281.260203"></polyline>
            <path d="M1112.68336,288.100529 L1112.68336,293.829801 L1116.84973,293.829801 C1119.161,293.829801 1120.34705,292.839754 1120.34705,290.890661 C1120.34705,289.119577 1119.161,288.100529 1116.81932,288.100529 L1112.68336,288.100529 Z M1108,277 L1112.68336,277 L1112.68336,284.14034 L1117.21467,284.14034 C1122.14132,284.14034 1125,286.840469 1125,290.949664 C1125,295.27087 1121.89803,298 1116.91055,298 L1108,298 L1108,277 Z" id="Fill-138" fill="#FFFFFE"></path>
            <path d="M1131.22472,298 L1135.77528,298 L1135.77528,293.199771 L1131.22472,293.199771 L1131.22472,298 Z M1131,277.600029 L1131,277 L1136,277 L1136,277.600029 L1134.67978,290.85966 L1132.32022,290.85966 L1131,277.600029 Z" id="Fill-139" fill="#FFFFFE"></path>
            <polyline id="Fill-140" fill="#69291F" points="99 270 128 270 128 277.600804 107.378987 277.600804 107.378987 285.689162 125.551595 285.689162 125.551595 293.288961 107.378987 293.288961 107.378987 308 99 308 99 270"></polyline>
            <path d="M181.344301,289.5 C181.344301,283.034914 176.613236,277.649171 169.946736,277.649171 C163.279239,277.649171 158.655699,282.928177 158.655699,289.5 C158.655699,295.964088 163.386764,301.349831 170.05426,301.349831 C176.720761,301.349831 181.344301,296.070826 181.344301,289.5 Z M150,289.5 C150,278.780387 158.441646,270 170.05426,270 C181.666874,270 190,278.671654 190,289.5 C190,300.219613 181.55935,309 169.946736,309 C158.334122,309 150,300.327348 150,289.5 Z" id="Fill-141" fill="#69291F"></path>
            <path d="M245.344301,289.5 C245.344301,283.034914 240.613236,277.649171 233.946736,277.649171 C227.280235,277.649171 222.656694,282.928177 222.656694,289.5 C222.656694,295.964088 227.387759,301.349831 234.05426,301.349831 C240.720761,301.349831 245.344301,296.070826 245.344301,289.5 Z M214,289.5 C214,278.780387 222.441646,270 234.05426,270 C245.666874,270 254,278.671654 254,289.5 C254,300.219613 245.55935,309 233.946736,309 C222.333126,309 214,300.327348 214,289.5 Z" id="Fill-142" fill="#69291F"></path>
            <path d="M293.813528,300.454485 C300.651546,300.454485 305.263817,295.840322 305.263817,289.000503 C305.263817,282.268247 300.651546,277.545515 293.813528,277.545515 L287.356349,277.545515 L287.356349,300.454485 L293.813528,300.454485 Z M279,270 L293.813528,270 C305.752175,270 314,278.197931 314,289.000503 C314,299.694505 305.752175,308 293.813528,308 L279,308 L279,270 Z" id="Fill-143" fill="#69291F"></path>
            <g id="Group-146" transform="translate(4.000000, 18.000000)">
                <mask id="mask-5" fill="white">
                    <use xlink:href="#path-4"></use>
                </mask>
                <g id="Clip-145"></g>
                <path d="M105.055,126.167 C106.021,123.373 106.602,121.727 107.159,120.074 C118.803,85.534 130.542,51.026 142.046,16.44 C147.681,-0.504 155.317,-0.059 172.189,0.47 C178.544,0.669 183.07,7.409 184.137,13.788 C192.538,64.042 200.95,114.294 209.368,164.546 C211.054,174.613 205.862,182.718 196.638,184.354 C186.487,186.154 177.837,180.344 176.083,170.176 C170.677,138.835 165.414,107.469 160.086,76.115 C159.785,74.339 159.407,72.576 158.809,69.484 C156.756,75.395 155.096,80.057 153.516,84.746 C143.952,113.138 134.438,141.547 124.841,169.928 C120.075,184.021 113.064,185.345 98.434,183.879 C91.225,183.157 87.357,176.317 85.2,169.936 C74.541,138.4 63.907,106.856 53.26,75.316 C52.785,73.91 52.278,72.514 51.25,69.589 C50.153,75.435 49.257,79.847 48.505,84.283 C43.692,112.685 38.904,141.09 34.122,169.496 C32.358,179.974 23.946,186.085 13.569,184.387 C4.166,182.848 -1.035,174.558 0.7,164.222 C8.941,115.122 17.156,66.017 25.313,16.903 C27.298,4.949 32.351,0.466 44.395,0.448 C59.403,0.427 63.313,2.958 68.183,17.237 C79.895,51.579 91.389,85.995 102.977,120.38 C103.489,121.898 104.058,123.398 105.055,126.167" id="Fill-144" fill="url(#linearGradient-6)" mask="url(#mask-5)"></path>
            </g>
            <g id="Group-149" transform="translate(987.000000, 18.000000)">
                <mask id="mask-8" fill="white">
                    <use xlink:href="#path-7"></use>
                </mask>
                <g id="Clip-148"></g>
                <path d="M32.23,94.398 C51.21,94.398 69.69,94.674 88.15,94.22 C93.32,94.093 98.72,92.478 103.51,90.394 C115.67,85.114 121.8,74.053 120.9,60.572 C120.04,47.729 112.59,38.356 99.5,34.815 C94.11,33.355 88.35,32.79 82.73,32.689 C67.25,32.411 47.68,32.585 32.19,32.604 C30.91,32.606 33.66,32.436 32.19,32.553 C32.19,53.108 32.23,73.721 32.23,94.398 Z M117.34,120.57 C126.61,133.697 135.61,146.272 144.44,158.966 C151.55,169.197 146.14,182.601 134.21,184.341 C126.79,185.423 121.38,181.965 117.23,176.079 C106.47,160.834 95.62,145.652 84.98,130.328 C83.07,127.573 81.06,126.46 77.66,126.503 C60.27,126.614 47.71,126.586 32.26,126.586 C32.17,128.424 32.03,130.018 32.02,131.613 C32,143.61 32.07,155.607 31.99,167.603 C31.93,177.486 25.32,184.474 16.14,184.58 C7,184.686 0.26,177.734 0.25,167.749 C0.18,117.596 0.18,67.443 0.25,17.291 C0.26,6.731 6.62,0.531 17.12,0.512 C40.78,0.469 17.12,0.561 88.1,0.561 C106.21,0.561 122.92,5.299 137.21,17.212 C164.13,39.648 166.05,96.117 124.71,116.889 C122.5,118.003 120.27,119.104 117.34,120.57 Z" id="Fill-147" fill="url(#linearGradient-9)" mask="url(#mask-8)"></path>
            </g>
            <g id="Group-152" transform="translate(418.000000, 18.000000)">
                <mask id="mask-11" fill="white">
                    <use xlink:href="#path-10"></use>
                </mask>
                <g id="Clip-151"></g>
                <path d="M57.842,33.219 C55.569,33.219 50.232,33.219 52.011,33.219 C57.842,33.219 57.842,33.185 17.039,33.185 C7.435,33.185 0.646,26.067 0.726,16.673 C0.805,7.374 7.378,0.548 16.796,0.527 C92.981,0.527 93.067,0.446 131.203,0.525 C140.217,0.544 147.379,7.926 147.37,16.72 C147.36,25.971 140.875,33.114 131.454,33.114 C89.937,33.114 102.032,33.219 95.984,33.219 C89.937,33.219 92.365,33.219 89.937,33.219 C89.937,35.593 89.937,37.535 89.937,39.477 C89.936,82.276 89.962,125.074 89.913,167.873 C89.903,177.444 83.362,184.333 74.369,184.575 C65.722,184.808 58.843,178.322 57.949,169.059 C57.837,167.902 57.854,166.731 57.847,165.566 C57.833,163.068 57.842,160.57 57.842,158.072 C57.842,118.604 57.842,79.137 57.842,39.669 C57.842,37.714 57.842,35.758 57.842,33.219" id="Fill-150" fill="url(#linearGradient-12)" mask="url(#mask-11)"></path>
            </g>
            <path d="M317.223048,202.995868 C296.252644,202.993858 296.252644,202.993858 254.311837,202.966725 C247.040164,202.939592 241.352767,199.045511 239.022833,192.916478 C236.723885,186.867838 238.410114,179.764029 242.979023,175.504155 C245.818723,172.856179 251.065322,171.18901 255.207427,171.11967 C277.803087,170.92773 300.470714,171.018173 323.103357,171.043296 C341.741828,171.063394 360.380298,171.001089 379.018769,171.065404 C388.914241,171.099572 395.996,177.816485 395.999998,186.943208 C396.003997,196.188511 388.655359,202.993858 378.635944,202.996873 C358.164312,203.002903 337.69368,202.998883 317.223048,202.995868" id="Fill-153" fill="#DF4F2A"></path>
            <path d="M317.223048,50.9958682 C296.252644,50.9938584 296.252644,50.9938584 254.311837,50.9667257 C247.040164,50.9395931 241.352767,47.0455588 239.022833,40.9166001 C236.723885,34.8680344 238.410114,27.764311 242.979023,23.5044887 C245.818723,20.8565454 251.065322,19.1883913 255.207427,19.1200573 C277.803087,18.9271142 300.470714,19.0185612 323.103357,19.043684 C341.741828,19.0637822 360.381298,19.0014777 379.019769,19.0657921 C388.914241,19.0999591 395.996,25.8167914 395.999998,34.9434028 C396.003997,44.1885938 388.655359,50.9928535 378.635944,50.9968731 C358.165312,51.0029026 337.69368,50.9988829 317.223048,50.9958682" id="Fill-154" fill="#F7D121"></path>
            <path d="M305.200042,124.952248 C288.732236,124.952248 272.264429,124.974208 255.796622,124.944263 C245.061178,124.924299 238.035087,118.609837 238.000122,109.048307 C237.966155,99.4977567 245.050189,93.0265803 255.710706,93.0185949 C288.979992,92.9956368 322.249278,92.9836587 355.518563,93.0455456 C364.148078,93.0615165 370.457873,98.332885 371.761591,106.254411 C373.060314,114.145993 368.973333,121.381772 361.445735,124.050895 C359.469678,124.750617 357.227882,124.945261 355.106968,124.954245 C338.471326,125.024117 321.835684,124.993173 305.200042,124.993173 C305.200042,124.979199 305.200042,124.965224 305.200042,124.952248" id="Fill-155" fill="#E9852C"></path>
            <path d="M668.222878,202.995868 C647.252429,202.993858 647.252429,202.993858 605.311531,202.966725 C598.039843,202.939592 592.353432,199.045511 590.023494,192.916478 C587.723541,186.867838 589.409773,179.764029 593.978692,175.504155 C596.818399,172.856179 602.065009,171.18901 606.207123,171.11967 C628.803831,170.92773 651.470507,171.018173 674.103199,171.043296 C692.74271,171.063394 711.381221,171.001089 730.019732,171.065404 C739.914226,171.099572 746.996,177.816485 746.999998,186.943208 C747.003997,196.188511 739.655344,202.993858 729.635907,202.996873 C709.16523,203.002903 688.693554,202.998883 668.222878,202.995868" id="Fill-156" fill="#DF4F2A"></path>
            <path d="M668.222563,50.9958682 C647.25203,50.9938584 647.25203,50.9938584 605.311964,50.9667257 C598.039248,50.9395931 592.352815,47.0445539 590.022867,40.9166001 C587.723905,34.8680344 589.410143,27.764311 593.978081,23.5044887 C596.818799,20.8565454 602.06443,19.1883913 606.20756,19.1200573 C628.803359,18.9271142 651.470126,19.0185612 674.103908,19.043684 C692.742493,19.0637822 711.381079,19.0014777 730.019664,19.0657921 C739.914197,19.0999591 746.996,25.8167914 746.999998,34.9434028 C747.003997,44.1885938 739.655314,50.9928535 729.635838,50.9968731 C709.165079,51.0029026 688.694321,50.9988829 668.222563,50.9958682" id="Fill-157" fill="#F7D121"></path>
            <path d="M656.199523,124.952248 C639.732598,124.952248 623.264674,124.974208 606.796749,124.943265 C596.061229,124.924299 589.034088,118.609837 589.000122,109.048307 C588.966155,99.4977567 596.04924,93.0265803 606.709834,93.0185949 C639.979357,92.9956368 673.24888,92.9836587 706.518404,93.0455456 C715.14798,93.0615165 721.45782,98.332885 722.761548,106.254411 C724.06028,114.145993 719.974268,121.381772 712.446617,124.050895 C710.470546,124.750617 708.228734,124.945261 706.106805,124.954245 C689.471045,125.024117 672.835284,124.993173 656.199523,124.993173 C656.199523,124.979199 656.199523,124.965224 656.199523,124.952248" id="Fill-158" fill="#E9852C"></path>
            <path d="M948.519448,168.7118 C946.787459,167.774207 945.125551,166.706503 943.433608,165.681507 C935.934997,161.12266 928.436386,156.556861 920.937775,152 C906.821564,173.490147 882.393512,187.708983 854.611609,187.708983 C828.110176,187.708983 804.669258,174.771392 790.308767,154.929978 C782.721053,159.524581 775.13334,164.116204 767.528607,168.682997 C767.30435,168.81708 767.136156,168.946198 767,169.075316 C786.404283,198.536989 819.949805,218.016874 858.055564,217.999989 C896.119274,217.984098 929.617742,198.494281 949,169.03956 C948.869851,168.930307 948.719678,168.821053 948.519448,168.7118" id="Fill-159" fill="#DE492A"></path>
            <path d="M885.965404,131.1374 C876.749362,125.486757 867.543283,119.827109 858.307314,114.224488 C857.839039,113.943357 856.922417,113.918345 856.474069,114.194474 C846.957135,119.988185 837.482047,125.850927 827.989025,131.684656 C818.710214,137.387324 809.422436,143.076985 800.13665,148.767647 C796.757103,150.838616 793.378551,152.909585 790,154.981554 C804.291342,174.967904 827.619387,188 853.99321,188 C881.641337,188 905.951762,173.6773 920,152.030174 C919.003671,151.419888 918.017305,150.808602 917.020977,150.199317 C906.679082,143.839342 896.317262,137.490372 885.965404,131.1374" id="Fill-160" fill="#DE492A"></path>
            <path d="M858.670769,114.222938 C858.199277,113.943748 857.276357,113.918909 856.824929,114.193131 C847.242612,119.946823 837.702429,125.76907 828.144189,131.562503 C818.801631,137.225781 809.450045,142.876143 800.100464,148.527498 C797.732974,149.958221 795.366487,151.388943 793,152.819666 C805.283864,172.266567 825.668356,185 848.755399,185 C874.942248,185 897.654104,168.616237 909,144.627785 C901.506291,140.091201 894.012583,135.554617 886.518874,131.019027 C877.239516,125.407415 867.97019,119.78686 858.670769,114.222938" id="Fill-161" fill="#452018"></path>
            <path d="M858.019193,114.222938 C857.548682,113.943748 856.627682,113.918909 856.177192,114.193131 C846.614806,119.946823 837.094465,125.76907 827.556104,131.562503 C818.232977,137.225781 808.900841,142.876143 799.570706,148.527498 C799.047137,148.845436 798.523569,149.162381 798,149.479326 C809.966999,170.798089 831.298169,185 855.636605,185 C880.483594,185 902.187169,170.193013 914,148.120139 C904.6098,142.416126 895.20959,136.718073 885.809379,131.019027 C876.549321,125.407415 867.299273,119.78686 858.019193,114.222938" id="Fill-162" fill="#DE492A"></path>
            <g id="Group-165" transform="translate(901.000000, 171.000000)">
                <mask id="mask-14" fill="white">
                    <use xlink:href="#path-13"></use>
                </mask>
                <g id="Clip-164"></g>
                <path d="M1.81,0.142 C1.37,0.489 0.94,0.845 0.49,1.182 C0.93,0.84 1.38,0.496 1.81,0.142" id="Fill-163" fill="url(#linearGradient-15)" mask="url(#mask-14)"></path>
            </g>
            <g id="Group-168" transform="translate(892.000000, 172.000000)">
                <mask id="mask-17" fill="white">
                    <use xlink:href="#path-16"></use>
                </mask>
                <g id="Clip-167"></g>
                <path d="M0.45,6.049 C3.54,4.385 6.5,2.468 9.31,0.32 C6.5,2.423 3.53,4.33 0.45,6.049" id="Fill-166" fill="url(#linearGradient-18)" mask="url(#mask-17)"></path>
            </g>
            <g id="Group-171" transform="translate(803.000000, 114.000000)">
                <mask id="mask-20" fill="white">
                    <use xlink:href="#path-19"></use>
                </mask>
                <g id="Clip-170"></g>
                <path d="M83.13,17.173 C73.88,11.525 64.64,5.868 55.37,0.268 C54.9,-0.013 53.98,-0.038 53.53,0.238 C43.978,6.029 34.468,11.889 24.94,17.72 C16.898,22.643 8.848,27.553 0.8,32.465 C12.349,55.74 34.572,71.504 60.1,71.504 C70.62,71.504 80.57,68.822 89.45,64.049 C92.53,62.33 95.5,60.423 98.31,58.32 C98.37,58.275 98.43,58.228 98.49,58.182 C98.94,57.845 99.37,57.489 99.81,57.142 C106.39,51.813 112.08,45.198 116.59,37.624 C115.82,37.158 115.07,36.691 114.3,36.226 C103.92,29.869 93.52,23.523 83.13,17.173" id="Fill-169" fill="url(#linearGradient-21)" mask="url(#mask-20)"></path>
            </g>
            <path d="M868.591556,126.81867 C865.693896,129.632272 862.220743,131.88335 859,134.385203 C859.312988,134.924124 859.636072,135.462062 859.949059,136 C867.349702,134.094107 874.760441,132.158711 881,128.060746 C878.162919,126.373175 875.325838,124.684621 872.488756,123 C871.19642,124.289281 869.883892,125.558893 868.591556,126.81867" id="Fill-172" fill="#DE492A"></path>
            <path d="M870.094649,150.71463 C855.956625,154.425009 844.052708,150.242656 841.515857,132.554201 C841.067237,129.429512 841.141175,126.219285 841.337009,123 C836.834822,125.778507 832.334634,128.56104 827.83045,131.337535 C827.220966,131.713906 826.610483,132.088265 826,132.46363 C826.984166,146.427617 831.306505,158.879074 844.153623,166.58362 C854.158148,172.581412 865.088889,173.170122 875.88974,170.43388 C891.466546,166.49003 903.566297,158.634533 911,146.195152 C905.47468,142.79372 899.949361,139.3943 894.424041,135.994881 C889.048594,142.575344 881.055365,147.838507 870.094649,150.71463" id="Fill-173" fill="#DE492A"></path>
            <g id="Group-176" transform="translate(861.000000, 0.000000)">
                <mask id="mask-23" fill="white">
                    <use xlink:href="#path-22"></use>
                </mask>
                <g id="Clip-175"></g>
                <path d="M0.75,0.199 C0.74,0.304 0.74,0.411 0.74,0.529 C0.75,9.465 0.76,18.4 0.76,27.336 C42.15,31.351 74.51,66.234 74.51,108.683 C74.51,121.764 71.42,134.119 65.96,145.082 C65.29,144.674 64.62,144.267 63.96,143.859 C63.91,143.96 63.86,144.064 63.81,144.166 C65.59,145.257 67.38,146.348 69.16,147.437 C76.66,152.012 84.16,156.568 91.65,161.158 C100.31,145.566 105.24,127.625 105.23,108.535 C105.21,50.025 58.76,2.316 0.75,0.199" id="Fill-174" fill="url(#linearGradient-24)" mask="url(#mask-23)"></path>
            </g>
            <g id="Group-179" transform="translate(861.000000, 27.000000)">
                <mask id="mask-26" fill="white">
                    <use xlink:href="#path-25"></use>
                </mask>
                <g id="Clip-178"></g>
                <path d="M74.51,81.683 C74.51,39.234 42.15,4.351 0.76,0.336 C0.76,1.327 0.76,2.319 0.76,3.31 C40.79,7.191 72.08,40.922 72.08,81.969 C72.08,94.497 69.15,106.333 63.96,116.859 C64.62,117.267 65.29,117.674 65.96,118.082 C71.42,107.119 74.51,94.764 74.51,81.683" id="Fill-177" fill="url(#linearGradient-27)" mask="url(#mask-26)"></path>
            </g>
            <g id="Group-182" transform="translate(861.000000, 104.000000)">
                <mask id="mask-29" fill="white">
                    <use xlink:href="#path-28"></use>
                </mask>
                <g id="Clip-181"></g>
                <path d="M27.21,17.489 C20.68,13.513 14.16,9.509 7.64,5.521 C5.75,4.366 3.88,3.185 1.95,2.097 C1.14,1.637 0.77,1.037 0.759797494,0.157 C0.76,0.286 0.76,0.416 0.76,0.546 C0.75,1.425 1.11,2.015 1.92,2.468 C3.78,3.521 5.59,4.663 7.42,5.78 C13.73,9.636 20.02,13.507 26.34,17.352 C33.22,21.546 40.13,25.706 47.01,29.9 C52.62,33.314 58.21,36.742 63.81,40.166 C63.86,40.064 63.91,39.96 63.96,39.859 C58.84,36.725 53.72,33.589 48.59,30.466 C41.47,26.128 34.33,21.826 27.21,17.489" id="Fill-180" fill="url(#linearGradient-30)" mask="url(#mask-29)"></path>
            </g>
            <g id="Group-185" transform="translate(861.000000, 50.000000)" fill="url(#linearGradient-31)">
                <path d="M0.76,0.062 C0.76,0.803 0.76,1.544 0.76,2.285 C0.76,1.544 0.76,0.803 0.76,0.062" id="Fill-183"></path>
            </g>
            <g id="Group-188" transform="translate(861.000000, 30.000000)">
                <mask id="mask-33" fill="white">
                    <use xlink:href="#path-32"></use>
                </mask>
                <g id="Clip-187"></g>
                <path d="M0.76,0.31 C0.76,6.894 0.76,13.478 0.76,20.062 C0.76,20.803 0.76,21.544 0.76,22.285 L0.77,22.285 C0.77,38.948 0.77,55.611 0.77,72.273 C0.77,72.901 0.77,73.529 0.76,74.157 C0.77,75.037 1.14,75.637 1.95,76.097 C3.88,77.185 5.75,78.366 7.64,79.521 C14.16,83.509 20.68,87.513 27.21,91.489 C34.33,95.826 41.47,100.128 48.59,104.466 C53.72,107.589 58.84,110.725 63.96,113.859 C69.15,103.333 72.08,91.497 72.08,78.969 C72.08,37.922 40.79,4.191 0.76,0.31" id="Fill-186" fill="url(#linearGradient-34)" mask="url(#mask-33)"></path>
            </g>
            <g id="Group-191" transform="translate(924.000000, 143.000000)">
                <mask id="mask-36" fill="white">
                    <use xlink:href="#path-35"></use>
                </mask>
                <g id="Clip-190"></g>
                <path d="M0.81,1.166 C0.97,1.262 1.12,1.358 1.28,1.454 C1.33,1.351 1.37,1.246 1.42,1.143 C1.27,1.048 1.11,0.953 0.96,0.859 C0.91,0.96 0.86,1.064 0.81,1.166" id="Fill-189" fill="url(#linearGradient-37)" mask="url(#mask-36)"></path>
            </g>
            <g id="Group-194" transform="translate(879.000000, 34.000000)">
                <mask id="mask-39" fill="white">
                    <use xlink:href="#path-38"></use>
                </mask>
                <g id="Clip-193"></g>
                <path d="M0.45,0.129 C31.63,10.715 54.08,40.211 54.08,74.969 C54.08,87.497 51.15,99.333 45.96,109.859 C46.11,109.953 46.27,110.048 46.42,110.143 C51.39,99.51 54.21,87.356 54.21,74.442 C54.21,37.416 31.04,6.629 0.45,0.129" id="Fill-192" fill="url(#linearGradient-40)" mask="url(#mask-39)"></path>
            </g>
            <g id="Group-197" transform="translate(861.000000, 50.000000)" fill="url(#linearGradient-41)">
                <path d="M0.76,0.062 C0.76,0.803 0.76,1.544 0.76,2.285 C0.76,1.544 0.76,0.803 0.76,0.062" id="Fill-195"></path>
            </g>
            <g id="Group-200" transform="translate(861.000000, 104.000000)">
                <mask id="mask-43" fill="white">
                    <use xlink:href="#path-42"></use>
                </mask>
                <g id="Clip-199"></g>
                <path d="M27.21,17.489 C20.68,13.513 14.16,9.509 7.64,5.521 C5.75,4.366 3.88,3.185 1.95,2.097 C1.14,1.637 0.77,1.037 0.759797494,0.157 C0.76,0.286 0.76,0.416 0.76,0.546 C0.75,1.425 1.11,2.015 1.92,2.468 C3.78,3.521 5.59,4.663 7.42,5.78 C13.73,9.636 20.02,13.507 26.34,17.352 C33.22,21.546 40.13,25.706 47.01,29.9 C52.62,33.314 58.21,36.742 63.81,40.166 C63.86,40.064 63.91,39.96 63.96,39.859 C58.84,36.725 53.72,33.589 48.59,30.466 C41.47,26.128 34.33,21.826 27.21,17.489" id="Fill-198" fill="url(#linearGradient-44)" mask="url(#mask-43)"></path>
            </g>
            <g id="Group-203" transform="translate(861.000000, 32.000000)">
                <mask id="mask-46" fill="white">
                    <use xlink:href="#path-45"></use>
                </mask>
                <g id="Clip-202"></g>
                <path d="M18.45,2.129 C14.55,1.299 10.53,0.844 6.42,0.844 C4.51,0.844 2.63,0.959 0.76,1.142 C0.76,6.782 0.76,12.422 0.76,18.062 C0.76,18.803 0.76,19.544 0.76,20.285 L0.77,20.285 C0.77,36.948 0.77,53.611 0.77,70.273 C0.77,70.901 0.77,71.529 0.76,72.157 C0.77,73.037 1.14,73.637 1.95,74.097 C3.88,75.185 5.75,76.366 7.64,77.521 C14.16,81.509 20.68,85.513 27.21,89.489 C34.33,93.826 41.47,98.128 48.59,102.466 C53.72,105.589 58.84,108.725 63.96,111.859 C69.15,101.333 72.08,89.497 72.08,76.969 C72.08,42.211 49.63,12.715 18.45,2.129" id="Fill-201" fill="url(#linearGradient-47)" mask="url(#mask-46)"></path>
            </g>
            <path d="M862,66 C862,71.667317 862,77.3336585 862,83 C864.942786,81.4529493 866.981519,78.2515492 866.999969,74.5390177 C867.009194,70.7991737 864.961236,67.5577806 862,66" id="Fill-204" fill="#DC5C32"></path>
            <path d="M900.546085,83.0000746 C895.847288,82.9805688 892.01028,86.7862585 892.000021,91.4881897 C891.989761,96.1582955 895.795991,99.9783579 900.474269,99.999917 C905.132028,100.020449 908.958777,96.2301591 908.999814,91.5733993 C909.030592,86.8673617 905.234622,83.0185539 900.546085,83.0000746" id="Fill-205" fill="#DC5C32"></path>
            <path d="M880.155502,117 C880.103668,117.104255 880.041467,117.200332 880,117.306631 C882.529506,118.836719 885.069378,120.370896 887.60925,121.895873 C889.330144,122.933308 891.061404,123.965632 892.792663,125 C892.865231,124.912099 892.937799,124.818066 893,124.726076 C891.507177,123.829692 890.003987,122.935352 888.511164,122.035901 C885.722488,120.362719 882.944179,118.679315 880.155502,117" id="Fill-206" fill="#DC5C32"></path>
            <path d="M886.626252,112.000004 C883.696964,111.996922 881.191917,113.729844 880,116.235236 C882.717167,117.92296 885.424233,119.614793 888.141401,121.296354 C889.595944,122.200309 891.060588,123.099127 892.515131,124 C893.444422,122.748845 893.999977,121.197741 893.999977,119.512071 C894.010078,115.36518 890.707053,112.004113 886.626252,112.000004" id="Fill-207" fill="#DC5C32"></path>
            <path d="M886.056346,63.0001544 C883.282598,62.9786586 881.010376,65.20399 881.00014,67.9615993 C880.97967,70.7151142 883.200716,72.9772956 885.933524,72.9998151 C888.707272,73.0233581 890.979494,70.7959795 890.999965,68.0383702 C891.0102,65.2828081 888.789154,63.0216503 886.056346,63.0001544" id="Fill-208" fill="#DC5C32"></path>
            <path d="M872.469209,101.000074 C870.549882,101.012396 868.989787,102.601923 869.00005,104.519008 C869.020578,106.43712 870.611464,108.010218 872.520528,107.99995 C874.439855,107.989682 876.010214,106.410423 875.99995,104.490257 C875.989686,102.521831 874.439855,100.987752 872.469209,101.000074" id="Fill-209" fill="#DC5C32"></path>
            <path d="M910.448682,110.000451 C908.529438,110.031293 906.979675,111.621748 907.000202,113.549416 C907.020728,115.475028 908.611545,117.025387 910.530789,116.999685 C912.491086,116.972955 914.020322,115.403062 913.999796,113.441467 C913.969006,111.526136 912.367926,109.969608 910.448682,110.000451" id="Fill-210" fill="#DC5C32"></path>
            <path d="M879.458885,83.000039 C876.993142,83.010313 875,85.0240021 875,87.5000177 C875,90.0058278 876.993142,92.0030786 879.49998,91.9999964 C881.996545,91.9969143 884.010235,89.9791156 883.999961,87.4887164 C883.989687,85.0085912 881.955449,82.9897651 879.458885,83.000039" id="Fill-211" fill="#DC5C32"></path>
            <path d="M862,32 C862,32.4193488 862,32.8396937 862,33.2590425 C902.143467,36.4315508 933.713479,69.0809936 933.713479,108.918135 C933.713479,121.331258 930.62784,133.03617 925.20033,143.381436 C925.542063,143.58862 925.873744,143.793812 926.215476,144 C931.813851,133.440578 935,121.472701 935,108.776692 C935,68.281143 902.847033,35.1077632 862,32" id="Fill-212" fill="#6D312C"></path>
            <path d="M853,29.7646891 C853,19.9658285 853,10.1679683 852.990047,0.369107752 C852.990047,0.248072419 852.980095,0.122035625 852.970142,0 C795.203539,2.11061614 748.974134,49.9155716 749.000011,108.501674 C749.007973,127.545234 753.91367,145.442458 762.509838,161 C766.287892,158.63631 770.079879,156.293626 773.874853,153.955944 C777.62902,151.643269 781.386173,149.336595 785.143326,147.028921 C778.901973,135.697614 775.338898,122.66981 775.338898,108.801762 C775.338898,65.4751139 810.020159,30.3068473 853,29.7646891" id="Fill-213" fill="#E3672A"></path>
            <path d="M804.781909,134.800981 C809.900628,131.669138 815.018347,128.5343 820.141063,125.409443 C825.334734,122.239674 830.538398,119.084876 835.732069,115.916105 C840.997694,112.703421 846.246329,109.463789 851.526944,106.275058 C852.530301,105.670247 853,104.959643 853,103.746029 C852.980013,79.1633541 852.980013,54.581677 852.980013,30 C809.823677,30.5409366 775,65.6299582 775,108.858978 C775,122.695778 778.577707,135.694225 784.844689,147 C786.838411,145.782394 788.832133,144.564787 790.825855,143.346183 C795.479872,140.500776 800.129891,137.648384 804.781909,134.800981" id="Fill-214" fill="#E3672A"></path>
            <path d="M847.321173,33 C810.141006,33 780,66.7595868 780,108.402761 C780,121.686366 783.077397,134.160068 788.462098,145 C789.367331,144.443441 790.273559,143.88788 791.179786,143.331321 C795.80731,140.487684 800.430858,137.637065 805.056394,134.791433 C810.145974,131.661537 815.234561,128.528649 820.328115,125.405735 C825.492221,122.237937 830.666263,119.085101 835.830368,115.918301 C841.066018,112.707614 846.284775,109.469997 851.53533,106.283249 C852.532975,105.678814 853,104.968653 853,103.755793 C852.980127,80.2656158 852.980127,56.776436 852.980127,33.2862588 C851.115007,33.1117107 849.230014,33 847.321173,33" id="Fill-215" fill="#452018"></path>
            <path d="M787,108.775718 C787,120.694693 789.464307,131.965713 793.84463,142 C797.471553,139.771273 801.098476,137.541543 804.7254,135.312816 C809.850117,132.165315 814.973835,129.014806 820.102554,125.874327 C825.302312,122.688712 830.512075,119.518142 835.711832,116.33353 C840.983628,113.104784 846.238414,109.848957 851.525218,106.644284 C852.529751,106.036449 853,105.322294 853,104.102612 C852.979989,80.401073 852.979989,56.7005365 852.979989,33 C816.381581,34.0722364 787,67.5743575 787,108.775718" id="Fill-216" fill="#DB393B"></path>
            <g id="Group-219" transform="translate(794.000000, 33.000000)">
                <mask id="mask-49" fill="white">
                    <use xlink:href="#path-48"></use>
                </mask>
                <g id="Clip-218"></g>
                <path d="M0.201,75.505 C0.201,86.026 2.131,96.042 5.611,105.144 C7.341,104.083 9.071,103.022 10.801,101.962 C15.923,98.824 21.044,95.683 26.17,92.552 C31.367,89.376 36.574,86.215 41.771,83.04 C47.04,79.821 52.292,76.575 57.576,73.38 C58.58,72.774 59.05,72.062 59.05,70.846 C59.03,47.429 59.03,24.013 59.03,0.597 C25.835,5.471 0.201,37.131 0.201,75.505" id="Fill-217" fill="url(#linearGradient-50)" mask="url(#mask-49)"></path>
            </g>
            <path d="M834.38669,63.0006082 C827.596643,63.0676933 822.009022,68.7038483 822.000011,75.4934676 C821.991,82.2530488 827.607656,87.9292546 834.372673,87.9993436 C841.139693,88.0694326 846.865478,82.5173844 846.997635,75.7558006 C847.133796,68.757917 841.372969,62.9315205 834.38669,63.0006082" id="Fill-220" fill="#D0232A"></path>
            <path d="M818.225974,100.003273 C814.030347,99.8758046 810.19403,103.489088 810.00787,107.743729 C809.815703,112.11781 813.165599,115.772244 817.567405,115.989041 C822.253456,116.21989 825.95966,112.777234 825.999694,108.153235 C826.037727,103.818298 822.523689,100.134757 818.225974,100.003273" id="Fill-221" fill="#64B445"></path>
        </g>
    </g>
</svg>
